<svg id="visual" viewBox="0 0 1000 400" width="1000" height="400" xmlns="http://www.w3.org/2000/svg" xmlns:xlink="http://www.w3.org/1999/xlink" version="1.1"><rect x="0" y="0" width="1000" height="400" fill="#F8FAFC"></rect><defs><linearGradient id="grad1_0" x1="60%" y1="0%" x2="100%" y2="100%"><stop offset="0%" stop-color="#f8fafc" stop-opacity="1"></stop><stop offset="100%" stop-color="#f8fafc" stop-opacity="1"></stop></linearGradient></defs><defs><linearGradient id="grad2_0" x1="0%" y1="0%" x2="40%" y2="100%"><stop offset="0%" stop-color="#f8fafc" stop-opacity="1"></stop><stop offset="100%" stop-color="#f8fafc" stop-opacity="1"></stop></linearGradient></defs><g transform="translate(1000, 0)"><path d="M0 160C-26.7 153.8 -53.4 147.7 -78 135.1C-102.6 122.5 -125.2 103.6 -138.6 80C-151.9 56.4 -155.9 28.2 -160 0L0 0Z" fill="#115E59"></path></g><g transform="translate(0, 400)"><path d="M0 -160C8.5 -122.4 17.1 -84.8 44 -76.2C70.9 -67.6 116.2 -87.9 138.6 -80C161 -72.1 160.5 -36.1 160 0L0 0Z" fill="#115E59"></path></g></svg>