<svg id="visual" viewBox="0 0 540 960" width="540" height="960" xmlns="http://www.w3.org/2000/svg" xmlns:xlink="http://www.w3.org/1999/xlink" version="1.1"><rect x="0" y="0" width="540" height="960" fill="#F8FAFC"></rect><defs><linearGradient id="grad1_0" x1="0%" y1="0%" x2="100%" y2="100%"><stop offset="30%" stop-color="#f8fafc" stop-opacity="1"></stop><stop offset="70%" stop-color="#f8fafc" stop-opacity="1"></stop></linearGradient></defs><defs><linearGradient id="grad2_0" x1="0%" y1="0%" x2="100%" y2="100%"><stop offset="30%" stop-color="#f8fafc" stop-opacity="1"></stop><stop offset="70%" stop-color="#f8fafc" stop-opacity="1"></stop></linearGradient></defs><g transform="translate(540, 0)"><path d="M0 108C-12.1 101.4 -24.1 94.8 -37.5 90.5C-50.9 86.3 -65.5 84.3 -76.4 76.4C-87.2 68.5 -94.2 54.7 -98.9 40.9C-103.5 27.2 -105.7 13.6 -108 0L0 0Z" fill="#115E59"></path></g><g transform="translate(0, 960)"><path d="M0 -108C12 -102.6 24 -97.2 38.7 -93.3C53.3 -89.4 70.7 -87 76.4 -76.4C82.1 -65.8 76.1 -47 79.5 -32.9C82.8 -18.8 95.4 -9.4 108 0L0 0Z" fill="#115E59"></path></g></svg>