<?xml version="1.0" encoding="utf-8"?>
<!-- Generator: Adobe Illustrator 26.0.1, SVG Export Plug-In . SVG Version: 6.00 Build 0)  -->
<svg version="1.1" id="Layer_1" xmlns="http://www.w3.org/2000/svg" xmlns:xlink="http://www.w3.org/1999/xlink" x="0px" y="0px"
	 viewBox="0 0 359 648" style="enable-background:new 0 0 359 648;" xml:space="preserve">
<style type="text/css">
	.st0{opacity:0.42;fill:url(#SVGID_1_);}
	.st1{opacity:0.42;clip-path:url(#SVGID_00000173844800051063621970000000356377203647822772_);}
	.st2{fill:#597B7C;}
	.st3{fill:url(#SVGID_00000036212198370208634300000002283073725804651929_);}
	.st4{fill:#F5F5F5;}
	.st5{fill:none;stroke:#FFFFFF;stroke-width:2.3925;stroke-miterlimit:10;}
</style>
<radialGradient id="SVGID_1_" cx="190.3635" cy="323.8912" r="250.8831" gradientTransform="matrix(1.0433 0 0 1.0433 -19.1238 -14.0595)" gradientUnits="userSpaceOnUse">
	<stop  offset="2.237672e-07" style="stop-color:#597B7C;stop-opacity:0"/>
	<stop  offset="0.3123" style="stop-color:#597B7C;stop-opacity:0.8561"/>
	<stop  offset="0.3648" style="stop-color:#597B7C"/>
	<stop  offset="0.9227" style="stop-color:#597B7C"/>
</radialGradient>
<path class="st0" d="M323.86,647.69c19.45-1.13,34.88-12.95,34.88-27.27V137.3c0-14.32-15.44-26.14-34.89-27.27
	c4.81-13.98,1.16-30.36-8.74-42.54c-14.43-17.75-38.98-29.52-63.86-38.88C227,19.49,201.39,11.94,179.48,0
	c-21.92,11.94-47.53,19.49-71.79,28.61c-24.87,9.35-49.43,21.13-63.86,38.88c-9.9,12.18-13.55,28.55-8.74,42.54
	c-19.45,1.13-34.88,12.95-34.88,27.27v483.13c0,14.32,15.44,26.14,34.89,27.27"/>
<g>
	<defs>
		<path id="SVGID_00000180362453249112142890000010020879323106486715_" d="M323.86,647.69c19.45-1.13,34.88-12.95,34.88-27.27
			V137.3c0-14.32-15.44-26.14-34.89-27.27c4.81-13.98,1.16-30.36-8.74-42.54c-14.43-17.75-38.98-29.52-63.86-38.88
			C227,19.49,201.39,11.94,179.48,0c-21.92,11.94-47.53,19.49-71.79,28.61c-24.87,9.35-49.43,21.13-63.86,38.88
			c-9.9,12.18-13.55,28.55-8.74,42.54c-19.45,1.13-34.88,12.95-34.88,27.27v483.13c0,14.32,15.44,26.14,34.89,27.27"/>
	</defs>
	<clipPath id="SVGID_00000054953284514516113040000013941455884387634355_">
		<use xlink:href="#SVGID_00000180362453249112142890000010020879323106486715_"  style="overflow:visible;"/>
	</clipPath>
	<g style="opacity:0.42;clip-path:url(#SVGID_00000054953284514516113040000013941455884387634355_);">
		<path class="st2" d="M560.06,57.09c-1.62-1.23-4.4-2.31-6.16-1.79c-16.13,4.81-32.24,9.74-48.08,15.41
			c-1.85,0.66-2.51,5.94-2.79,9.15c-0.15,1.77,1.32,5.04,2.64,5.37c29.75,7.58,34.96,37.73,34.23,61.07
			c-0.04,1.38-0.29,2.85,0.05,4.14c2.98,11.21,1.72,15.34-8.11,24.45c-5.5-13.23-14.56-23.06-28.07-30.36
			c-3.85,30.73-14.25,57.16-43.13,72.95c5.43,4.44,10.49,8.33,15.28,12.52c13.54,11.87,15.87,21.8,8.2,37.86
			c-2.11,4.41-1.27,6.8,1.48,10.51c6.33,8.53,12.6,17.29,17.37,26.74c10.38,20.55,5.69,40.69-4.02,60.08
			c-2.14,4.27-1.96,6.91,1.42,10.35c17.08,17.41,19.11,37.76,9.23,59.06c-5.61,12.1-13.49,23.15-21.46,34.26
			c1.9-8.27-1.08-14.5-6.7-19.16c-5.37-4.45-11.59-7.89-18.15-12.24c-7.12,20.48-6.9,39.22,4.49,55.97
			c7.52,11.05,17.09,20.92,26.76,30.26c16.45,15.89,32.9,31.58,43.29,52.42c10.88,21.8,13.01,43.95,2.73,66.54
			c-1.81,3.97-4.63,7.48-8.08,10.6c1.2-6.13,3-12.2,3.48-18.38c1.65-21.2-5.36-40.19-18.56-56.1
			c-12.38-14.91-26.44-28.51-40.46-41.96c-19.06-18.28-31.17-39.42-29.99-66.53c0.25-5.81,1.7-11.73,3.6-17.26
			c1.9-5.53,5.04-10.63,8.5-17.67c-15.98-3.09-31.44-6.24-47-8.83c-1.4-0.23-4.44,2.92-4.97,4.96c-4.41,16.95,0.03,32.85,6.33,48.5
			c7.34,18.24,15.75,36.17,21.49,54.9c6.75,22.03,7.36,44.72-4.33,65.72c-4.31,7.73-10.68,14.39-16.62,21.09
			c-2.33,2.63-6.03,4.04-9.77,5.45c14.51-16.46,20.09-35.75,17.65-56.75c-1.51-13.05-5.04-26.05-9.19-38.56
			c-3.94-11.89-9.82-23.14-14.93-34.63c-9.84-22.1-12.87-44.55-3.76-67.7c0.42-1.07,0.55-2.24,0.95-3.93
			c-16.58,0.05-30.93,5.51-44.24,14.35c-0.55-0.41-1.11-0.83-1.66-1.24c3.47-5.3,5.96-11.74,10.59-15.67
			c11.66-9.89,25.69-15.35,41.05-16.06c6.22-0.29,11.29-1.72,16.2-5.6c3.53-2.79,8.1-4.28,12.68-5.42
			c-3.35,3.14-6.7,6.28-10.86,10.18c29.9,6.88,61.93,6.41,81.33,34.55c4.22-5.68,3.43-12.72-3.75-18.15
			c-4.88-3.69-10.31-6.85-15.89-9.38c-22.54-10.22-26.18-31.23-18.15-49.36c4-9.03,10.43-16.98,16.59-26.72
			c2.06,7.35,2.86,12.47,4.95,16.98c2.03,4.4,5.39,8.18,8.63,12.9c7.36-13.75,5.74-26.53,1.24-39.39
			c-5.74-16.39-16.78-29.03-28.81-41c-8.58-8.53-17.46-16.79-25.6-25.74c-13.73-15.1-16.68-32.68-9.53-51.66
			c3.2-8.49,7.51-16.56,12.6-24.61c1.43,10.83,4.09,20.33,12.8,27.73c10.09-8.02,17.43-18.42,20.87-30.47
			c3.81-13.33,5.31-27.33,7.38-41.11c0.26-1.72-1.8-5.15-3.38-5.57c-16.71-4.4-33.44-4.91-49.28,3.07
			c-5.36,2.7-9.83,7.18-14.47,10.66c-0.33-8.7,11.63-23.4,25.16-29.94c12.8-6.19,26.49-6.39,40.61-4.84
			c-0.02-4.48-0.04-8.39-0.07-12.49c-9.43-1.86-18.45-3.81-27.55-5.3c-1.66-0.27-4.08,0.86-5.37,2.13
			c-14.92,14.71-32.14,15.43-51.69,8.68c2.57-5.56,4.97-10.78,8-17.34c-4.27,2.04-7.51,3.58-10.73,5.12
			c1.97,9.96,4.4,19.39,5.63,28.97c3.86,30.06,0.08,58.04-24.47,79.32c-4.82,4.17-10.69,7.13-16.75,9.92
			c32.39-32.38,27.01-69.64,15.59-108.85c-6.68,3.73-12.78,7.14-18.14,10.14c4.21,13.42,8.51,25.92,12.01,38.64
			c3.41,12.43-1.01,23.85-5.96,35.06c-2.57,5.82-4.51,11.92-7.31,17.62c-1.41,2.87-3.92,5.33-6.37,7.48
			c-0.56,0.49-4.14-0.86-4.28-1.71c-1.84-10.82-3.12-12.92-14.37-18.56c2.32,6.18,3.36,13.35,7.23,18.34
			c8.8,11.37,18.32,22.35,28.76,32.23c15.52,14.69,32.33,28.05,42.96,47.13c7,12.58,12.49,25.66,11.57,40.48
			c-0.23,3.76-0.22,8.01-1.97,11.1c-4.74,8.38-4.43,16.95-3.31,25.99c1.21,9.76-2.12,17.88-11.18,24.38c-0.17-2.34-0.37-3.67-0.34-5
			c0.42-15.84-5.23-29.25-16.32-40.42c-7.36-7.41-14.99-14.56-22.27-22.05c-19.27-19.84-20.89-35.29-6.87-57.71
			c-6.99-7.39-13.82-14.63-20.67-21.85c-14.63-15.42-21.19-33.52-17.86-54.74c0.74-4.74-0.29-7.73-5.07-9.25
			c-2.92-0.93-5.67-2.41-8.54-3.54c-0.84-0.33-1.82-0.33-4.47-0.76c-0.86,10.2-1.7,20.14-2.68,31.73c-1.77-3.21-3.5-5.29-4.11-7.66
			c-1.53-5.94-3.04-11.97-3.66-18.05c-0.99-9.68-0.68-9.71-11.34-12.65c-1.37,10.1-2.61,20.1-4.1,30.07
			c-3.2,21.29-8.48,41.85-21.52,59.62c-10.66,14.52-24.93,23.02-42.61,26c-1.62,0.27-4.2,0.06-4.7,0.96
			c-4.37,7.94-9.58,3.78-14.95,1.57c-12.83-5.26-24.61-3.35-35.15,5.77c-2.15,1.86-4.42,3.61-6.47,5.58
			c-14.5,13.86-30.82,21.27-51.27,13.89c1.43,12.8,2.78,24.92,4.19,37.51c3.48-2.67,7.25-5.32,10.76-8.28
			c24.63-20.68,52.53-22.01,81.14-11.76c28.89,10.35,52.94,27.66,67.71,55.71c0.64,1.21,1.63,2.23,2.42,3.3
			c7.8-4.17,9.28-7.52,5.28-14.67c-2.51-4.47-6.2-8.34-9.67-12.2c-3.96-4.41-8.48-8.32-12.38-12.78
			c-5.79-6.65-7.03-14.61-4.22-22.72c5.06-14.59,13.65-26.95,24-36.41c1.93,6.57,3.8,13.46,6.02,20.24c0.8,2.44,2.34,4.66,3.7,6.89
			c16.86,27.57,14.58,40.55-5.68,71.15c-4.78,7.22-10.61,13.74-17.16,22.11c-12.56-26.55-32.07-43.43-56.62-55.74
			c-7.82,8.39-15.54,16.68-22.82,24.49c9.48,4.07,19.81,6.45,27.55,12.27c14.13,10.65,27.13,22.92,39.86,35.28
			c13.37,12.97,26.65,25.8,44.64,32.2c25.38,9.03,50.27,9.54,73.83-5.39c5.29-3.36,9.78-8,15.29-12.6c-4,10.83-10.3,19.2-18.63,26
			c-29.54,24.11-75,22.79-106.41-3.78c-12.65-10.7-23.91-23.05-35.89-34.56c-3.76-3.61-7.68-7.09-11.74-10.37
			c-13.54-10.95-27.96-19.8-47.21-17.75c6.46-19.9,19.51-34.53,32.98-48.99c-30.82-14.66-63.47-11.3-87.31,10.27
			c-3.62,11.88-8.4,23.59-10.28,35.74c-0.77,4.98,4.73,10.92,7.83,17.37c15.67-26.72,31.31-52.35,69.21-49.72
			c-3.93,6.32-7.09,11.95-10.89,17.11c-0.83,1.13-3.94,0.5-5.96,0.86c-8.1,1.41-16.51,1.93-24.21,4.54
			c-16.94,5.75-22.47,19.76-23.63,36.2c-0.11,1.58,0.53,3.23,0.94,4.82c3.68,14.4,7.38,28.8,11.31,44.13
			c8.37,1.4,18.68,2.65,28.75,4.94c12.67,2.87,24.6,7.79,32.9,18.42c3.53,4.53,5.84,10.01,8.7,15.06l-0.22-0.2
			c0.39,10.15-2.18,19.1-10.41,25.88c-8.83-28.89-29.86-44.05-60.8-43.52c-1.88,0.03-4.64,2.63-5.42,4.65
			c-5.19,13.56-12.16,25.95-22.46,36.63c2.95-13.28-0.19-25.31-6.03-37c-1.76-3.53-3.89-4.65-7.77-4.34
			c-11.58,0.92-23.24,2.38-34.77,1.82c-8.04-0.39-15.99-3.62-23.88-5.89c-5.26-1.51-5.6-5.04-2.87-9.27
			c2.55-3.95,5.1-7.9,8.12-12.58c13.97,9.25,29.05,10.44,45.48,8.79c-0.99-1.66-1.6-3.03-2.51-4.15
			c-4.34-5.34-9.1-10.37-13.08-15.95c-11.85-16.62-9.91-35.1,6.13-50.49c-7.22,14.13-0.83,24.21,6.42,33.79
			c8.29,10.96,16.74,21.84,25.92,32.04c2.17,2.41,7.54,1.96,13.66,3.31c-3.25-10.85-5.49-19.66-8.56-28.17
			c-3.05-8.46-6.72-16.73-10.58-24.86c-1.25-2.64-4.02-4.54-5.99-6.87c-0.69-0.82-1.3-1.83-1.58-2.85
			c-1.44-5.31-2.27-10.84-4.21-15.95c-9.93-26.12-10.63-51.32,5.9-75.4c1.02-1.49,0.21-5.46-1.14-7.16
			C67.12,303,56.96,291.08,47,279c-4.35-5.28-8.54-10.7-13.31-16.68c-11.48,8.34-24.39,9.85-38.34,9.06
			c18.95,6.29,38.68,11.17,46.1,32.67c7.03,20.37,1.01,38.51-10.87,56.83c7.19-35.88-1.83-55.52-29.53-64.16
			c11.28,35.6,23.71,70.78,3.62,107.57c9.66-1.03,17.21-4.97,22.45-12.27c5.08-7.08,9.23-14.83,13.84-22.37
			c0.24,0.03,0.76-0.04,1.09,0.17c20.56,13.05,17.9,8.38,7.84,27.92c-8.51,16.53-25.65,23.79-44.68,19.46
			c-6.75-1.54-11.69-1.44-17.19,3.43c-3.87,3.43-9.62,4.75-14.53,7.02c4.47-5.24,8.95-10.49,13.52-15.84
			c-4.92-3.75-9.28-7.08-13.65-10.4c3.75-0.12,6.89,0.7,9.88,1.91c5.47,2.22,8.45,1.13,10.3-5.1c3.65-12.29,5.8-24.87,3.1-37.25
			c-5.04-23.09-11.41-45.88-17.17-68.53c-10.47-0.9-19.09,0.76-26.47,5.93c-3.65,2.56-7.44,6.46-8.76,10.53
			c-3.27,10.14-2.73,20.62,1.2,30.71c6.13,15.73,18.44,23.33,35.1,25.74c-2.14,4.31-4.39,7.97-5.83,11.92
			c-2.32,6.38-6.44,6.98-12.33,5.39c-18.07-4.88-29.85-19.45-30.68-38.23c-0.95-21.62,9.15-39.04,21.93-54.92
			c4.79-5.95,12.26-9.92,18.96-14.07c3.73-2.32,7.22-10.38,3.94-13.23c-5.79-5.01-12.32-9.16-18.54-13.68
			c1.27,1.99-0.43,6.62-0.04,11.07c0.66,7.54-3.53,15.2-10.14,17.56c-8.21-7.07-15.97-13.76-23.39-20.15
			c-7.39,5.17-13.39,9.41-19.44,13.58c-5.78,3.98-11.62,7.89-18.69,12.69c-0.52-13.49-7.15-20.36-16.2-25.02
			c-6.5-3.35-13.58-5.53-20.25-8.58c-5.15-2.36-7.95-0.65-11.05,3.78c-7.45,10.62-16.64,19.59-28.88,24.62
			c-13.05,5.36-25.46,2.59-38.57-2.92c14.69-12.06,17.91-16.23,20.88-27.33c-6.61,3.42-12.43,6.44-19.16,9.92
			c4.27-9.34,7.42-18.15,16.64-21.84c7.41-2.96,8.82-8.19,7.68-15.23c-0.5-3.11-1.65-7.27,3.77-7.21c4.36,0.05,9.39-0.51,10.48,5.8
			c0.39,2.23,1.03,4.42,1.43,6.06c5.65-0.03,10.72-0.69,15.56,0.08c5.73,0.92,7.69-1.76,9.88-6.35c5.29-11.1,10.41-22.45,17.2-32.63
			c8.95-13.42,31.57-20.15,45.56-14.4c-30.47,6.82-38.05,32.28-48.03,55.75c9.19,3.84,18.29,7.21,26.99,11.39
			c9.08,4.36,15.5,11.37,17.06,22.38c5.59-3.9,10.38-7.24,15.61-10.89c-13.7-9.54-24.97-20.2-24.54-37.62
			c0.42-17.08,9.18-28.86,24.73-34.31c0.4-7,0.75-13.28,1.13-19.93c-15.68-2.85-31.45-2.12-47.19,0.71
			c-8.99,1.62-17.7,3.79-22.06,13.23c-0.24,0.51-1.1,0.73-1.7,1.11c-0.35-1.44-0.68-2.78-0.97-3.94
			c-18.52,5.64-21.09,25.78-33.67,36.8c5.38-16.81,15.42-30.44,28.47-41.74c4.21-3.65,4.98-7.03,1.98-10.8
			c-5.42-6.81-11.27-13.31-17.32-19.57c-5.26-5.44-11.38-10.06-16.49-15.62c-5.19-5.65-5.56-12.33-1.76-19.13
			c7.3-13.08,12.12-28.5,30.42-30.79c-4.45-10.81-9.29-20.58-4.47-31.68c0.41-0.95-0.48-2.74-1.19-3.88
			C-181.9,17.2-184.4-0.49-181.3-19.2c3.33-0.02,6.65-0.04,9.98-0.05c0.05,18.66,9.25,33.2,20.1,47.49
			c15.94,20.99,40.93,29.89,60.52,47.79c-2.86-16.03-10.58-27.49-22.56-36.26c-5.94-4.35-12.06-8.47-17.76-13.1
			c-14.67-11.91-20.77-27.23-17.5-46.03c3.33-0.02,6.65-0.04,9.98-0.05c2.51,11.78,9.77,20.15,19.52,27.6
			c6.77-13.34,17.07-22.29,30.36-27.87c6.18-0.03,12.35-0.07,18.53-0.1c2.76,1.28,5.53,2.53,8.27,3.85
			c15.13,7.32,23.63,25.18,19.33,41.13c-1.59,5.91-4.12,11.41-10.54,14.19C-56.49,12.5-65.43,1.3-84.95-1.02
			c-12.98-1.54-24.78,3.93-28.84,13.75c24.5,15.34,40.58,35.36,33.74,67.39c2.68-2.53,4.63-4.38,5.12-4.84
			c5.74,5.22,10.13,11.09,15.98,14.16c11.57,6.08,22.85,11.79,26.42,26.68c5.34-3.1,9.75-5.65,16.03-9.29
			c-2.87,5.91-4.19,10.95-7.27,14.42c-5.04,5.67-5.9,11.72-5.56,18.85c0.79,16.43-6.3,29.6-18.07,41.25
			c-7.1-8.87-14.85-16.02-25.47-18.88c-0.66,0.54-1.32,1.08-1.98,1.62c9.66,17.13,19.32,34.27,29.47,52.26
			c4.54-19.94,9.68-30.24,18.48-37.71c-10.66,28.28-6.57,49.06,11.11,61.11c7.31-6.36,14.47-12.35,21.28-18.72
			c1.29-1.21,1.47-3.88,1.69-5.93c1.23-11.21,1.28-22.69,3.86-33.57c1.49-6.28,6.99-11.6,10.69-17.35c0.7,0.38,1.41,0.75,2.11,1.13
			c-0.92,3.62-1.89,7.22-2.76,10.85c-3.05,12.59-4.07,25.67,3.22,36.63c13.15,19.77,27.51,38.75,41.89,57.66
			c10.42,13.72,21.69,26.79,32.35,39.87c3.55-6.07,3.85-18.72,18.14-13.33c8.08-15.91,18.4-29.41,34.22-37.52
			c4.77-2.44,5.58-5.4,5.18-10.14c-1.61-19.22-11.38-33.8-25.37-46.18c-14.77-13.07-32.79-22.83-41.6-42.32
			c-5.46,3.77-10.15,7.01-14.85,10.26c-0.5-0.42-0.99-0.83-1.49-1.25c4.02-5.65,8.08-11.26,12.01-16.96
			c0.88-1.27,1.92-2.86,1.87-4.26c-0.43-10.33,6.37-17.4,10.3-25.58c0.86,6.22,1.68,12.16,2.58,18.75
			c7.6-4.07,13.68-7.33,19.9-10.66c-4.83-3.37-9.07-6.38-13.37-9.31c-4.75-3.25-5.99-7.64-2.77-12.24
			c4.32-6.17,8.95-12.23,14.17-17.64c8.9-9.23,19.6-11.78,31.88-7.02c9.6,3.72,19.24,7.7,30.23,4.02
			c-5.07,16.78-12.96,21.62-28.98,18.13c-5.78-1.26-11.32-3.71-17.13-4.66c-4.65-0.76-9.53-0.09-14.31-0.05
			c-0.01,0.83-0.01,1.67-0.02,2.5c11.05,8.01,23.32,13.75,36.72,16.06c22.09,3.82,29.84-2.12,34.17-24.08
			c4.02-20.37,1.31-40.67-0.03-61.02c-0.36-5.52-2.26-7.91-7.36-10.22c-20.05-9.08-33.17-24.01-36.15-46.57
			c5.7-0.03,11.4-0.06,17.1-0.09c5.15,12.28,14.44,20.29,25.65,26.23c3.54-9.36,6.76-17.89,9.98-26.42c5.7-0.03,11.4-0.06,17.1-0.09
			c-3.81,10.57-8.15,21.03-6.55,34.22c8.17-1.05,15.83-1.96,23.47-3.06c4.07-0.58,5.85-2.93,5.91-7.28
			c0.13-8.68,5.27-15.04,11.37-23.04c0.04,7.83,0.07,13.67,0.1,19.52c0.81,0.28,1.61,0.56,2.42,0.83
			c4.86-7.15,9.72-14.31,14.58-21.46c1.43-0.01,2.85-0.02,4.28-0.02c-4.97,8.05-9.58,16.36-15.07,24.04
			c-2.79,3.9-3.27,6.88,0.48,9.56c9.18,6.57,18.18,13.54,28,19.01c14.86,8.29,30.76,14.9,41.16,31.39c0.69-3.81,1.36-6.05,1.47-8.32
			c0.6-12.31-6.82-19.65-16.29-25.52c-8.45-5.24-17.37-9.79-25.5-15.47c-14.37-10.04-16.55-18.64-9.97-34.73
			c2.85-0.02,5.7-0.03,8.55-0.05c1.64,9.51,9.33,13.96,16.27,18.71C309,2.5,317.7,6.97,325.75,12.39
			c12.08,8.12,17.83,19.84,13.26,33.81c-4.24,12.93-10.94,25.07-16.78,37.46c-0.8,1.69-2.88,2.76-3.58,3.4
			c-4.1-6.28-7.88-12.06-11.65-17.84c-2.27,17.56-3.95,33.81-16.05,46.75c0.43-4.72,1.57-9.26,2.41-13.86
			c3-16.51-2.99-29.33-17.94-35.42c-7.3-2.98-15.52-4.85-23.38-5.04c-20.05-0.48-25.53,9.36-22.93,28.97
			c0.6,4.49,2.98,9.05,5.52,12.92c9.28,14.13,23.03,20.61,39.55,21.8c6.53,0.47,12.46-0.47,17.99-4.8c3.6-2.82,8.39-5.39,12.8-5.66
			c10.58-0.66,18.12-6.08,24.77-13.3c2-2.17,3.81-5.4,3.96-8.23c1.14-21.01,11.33-38,23.59-54.27
			c-9.35,15.19-16.06,30.84-10.56,49.69c5.28-3.1,9.8-6.21,14.7-8.48c4.05-1.88,4.65-4.03,3.68-8.26
			c-4.5-19.66-2.43-38.64,7.03-56.64c0.5-0.96,0.78-2.04,1.44-3.82c-4.5-0.84-8.42-1.43-12.29-2.31
			c-14.06-3.19-28.35-5.65-42.05-9.99c-9.88-3.13-17.83-9.87-20.29-21.02c9.03-0.05,18.05-0.1,27.08-0.14
			c5.55,2.35,10.91,5.56,16.7,6.86c14.07,3.18,28.31,5.66,42.56,7.98c3.14,0.51,6.73-0.36,9.86-1.38
			c5.71-1.84,11.24-4.27,16.85-6.45c0.37,0.84,0.74,1.68,1.11,2.51c-4.49,3.16-8.97,6.33-13.89,9.79
			c18.07,8.06,23.87,23.74,25.52,42c2.81-2.16,4.85-3.74,8.19-6.31c-0.35,4.44-0.54,6.97-0.79,10.13
			c23.69-16.28,35.92-37.62,34.99-65.9c2.38-0.01,4.75-0.03,7.13-0.04c4.66,17.91,4.88,35.43-2.78,52.86
			c-6.53,14.86-16.03,27.25-29.3,38.66c6.7,2.78,12.43,5.14,18,7.45c2.66-3.96,4.7-7.02,6.75-10.07c0.4,0.21,0.8,0.41,1.2,0.62
			c-1.28,3.16-2.56,6.32-4.22,10.4c6.27,1.12,12.11,2.17,18.39,3.3c0.7-4.53,1.23-7.97,1.66-10.77c-4.35-3.4-8.26-6.1-11.67-9.33
			c-1.23-1.16-2.27-4.12-1.63-5.36c2.75-5.37,6.15-10.41,9.28-15.51c4.49,3.51,8.16,6.39,11.71,9.16
			c6.08-7.52,11.69-14.44,17.49-21.6c-3.44-0.4-6.74-0.61-9.97-1.21c-3.25-0.6-6.51-1.32-9.61-2.45c-5.74-2.08-9.8-6.29-8.01-12.44
			c2.19-7.52,5.96-14.58,9.05-21.84c0.13,9.67,2.61,14.54,11.74,15.99c10.61,1.69,21.5,1.71,30.4,2.33
			c3.74-11.51,6.83-21.03,9.93-30.55c1.43-0.01,2.85-0.02,4.28-0.02c-1.22,9.16-1.58,18.24,2.06,26.93
			c15.79-1.87,32.33-8.54,43.45,8.08c9.93,14.84,3.28,27.88-8.24,40.45c5.67,3.99,10.8,7.59,15.92,11.19
			c0.04,7.6,0.08,15.2,0.12,22.8C592.85,82.96,564.97,60.81,560.06,57.09z M154.61,149.92c-0.28-0.89-0.57-1.78-0.85-2.68
			c3.84-2.51,7.68-5.03,12.77-8.35c-21.89,1.5-41.82,3.32-60.81,13.43c3.43,3.62,6.24,7.11,9.57,10
			c7.89,6.83,16.15,13.23,24.06,20.04c21.51,18.51,31.91,41.18,25.41,69.7c9.9-1.74,19.64-3.44,29.37-5.17
			c6.2-1.1,9.65,1.05,11.12,7.58c1.88,8.35,4.74,16.47,7.54,25.91c5.84-4.85,11.96-8.99,16.92-14.22
			c13.92-14.65,19.78-33.11,23.49-52.47c4-20.89,8.21-41.75,12.23-62.64c0.38-1.96,0.03-4.06,0.02-5.15
			c-8.35-2.58-16.25-3.92-23.05-7.42c-7-3.6-12.91-9.3-18.79-13.69c-9.97,3.2-20.11,6.3-30.13,9.72c-5.5,1.88-10.81,4.3-16.22,6.45
			C169.73,143.97,162.16,146.94,154.61,149.92z M-147.08,62.9c5.34,14.18,18.27,25.43,16.44,41.78c-1.65,14.8-5.27,29.39-7.78,42.79
			c8.36-1.7,18.19-4.51,28.19-5.49c10.34-1.01,20.86-0.1,31.29-0.34c2.19-0.05,4.35-1.47,5.96-2.05c2.81,6.69,10.53,4.51,15.32,7.64
			c5.26,3.44,10.77,6.49,17.26,10.37c-0.9-7.79-1.69-14.73-2.45-21.34c-7.75-0.33-15.15,0.58-21.76-1.29
			c-6.51-1.84-12.23-6.5-18.59-10.09c-3.01,3.52-6.97,8.15-11.32,13.24c-5.87-6.47-11.25-12.41-17.11-18.86
			c3.96-5.03,8.75-11.12,13.74-17.46C-108.82,81.9-131.41,76.75-147.08,62.9z M210.18,32.95c2.93,27.59,4.11,55.64-9.06,83.58
			c6.6-1.72,11.74-3.07,17.21-4.5c-3.83-15.79-0.99-30.01,7.02-42.99c7.84-12.7,16.06-25.4,32.61-26.21
			c-6.5-7.38-12.67-14.39-18.41-20.9C230.48,25.33,220.82,28.96,210.18,32.95z M357.97,187.78c3.14-23.07-9.14-41.79-17.85-63.98
			c-10.6,11.69-19.84,21.89-29.71,32.77c7.38,2.91,12.82,5.05,17.75,6.99c4.56-5.57,8.72-10.64,12.88-15.72
			c0.61,0.44,1.22,0.88,1.83,1.32c-3.07,5.91-6.15,11.81-8.7,16.71C342.27,173.33,349.86,180.31,357.97,187.78z M386.69,16.3
			c-7.41,13.14-7.56,37.38-0.07,51.41c7.83-3.76,15.75-7.4,23.46-11.44c1.43-0.75,2.87-3.19,2.83-4.81
			C412.51,35.57,401.92,21.55,386.69,16.3z M409.86,341.06c-2.6-23.68-25.53-58.51-47.37-70.77c-3.56,6.59-2.25,13.25,1.34,18.83
			c4.97,7.71,10.76,15,16.93,21.8C390.27,321.39,400.39,331.31,409.86,341.06z M-69.11,234.49c-0.89-7.56-0.91-15.36-2.87-22.64
			c-2.89-10.71-9.89-14.47-20.99-13.71c-5.61,0.39-6.9,2.72-5.3,7.8C-93.83,220.07-83.09,228.06-69.11,234.49z M-187.9,92.24
			c4.44,13.01,15.76,18.91,24.8,26.94c8.33-7.13,9.9-16.98,4.24-24.71C-164.42,86.87-176.69,85.75-187.9,92.24z M124.17,298.04
			c12.65,0.07,22-5.69,30.5-13.18c10.15-8.95,19.82-18.65,34.97-18.37C164.37,262.88,131.8,278.54,124.17,298.04z M508.86,53.56
			c13.12-4.02,25.39-7.79,38.12-11.69c-3.52-6.79-6.52-12.58-9.44-18.22C525.63,24.76,513.23,37.35,508.86,53.56z M83.35,325.32
			c-10.44,11.75-7.87,46.9,3.99,61.01C91.21,365.71,91.74,345.71,83.35,325.32z M-147.88,101.18c-3.7,6.25-6.98,11.44-9.85,16.85
			c-0.83,1.56-1.3,4.2-0.54,5.56c4.4,7.85,9.22,15.46,13.5,22.51C-141.56,132.14-137.51,116.8-147.88,101.18z M8.37,224.4
			c-4.05,8.43-7.61,15.86-12.09,25.18c10.8,1.2,19.37,2.14,29.37,3.25C19.39,242.53,14.32,234.19,8.37,224.4z M-174.63,244.48
			c-3.9-0.18-6.94-0.75-9.85-0.33c-2.21,0.31-5.19,1.3-6.2,2.97c-5.69,9.42-10.9,19.13-15.43,27.25
			C-196.38,271.07-183.35,259.46-174.63,244.48z M442.17,229.24c8.76,16.93,23.16,28.69,37.26,40.75
			C475.42,248.79,454.1,243.31,442.17,229.24z M582.65,33.31c-4.65-10.29-13.73-14.8-24.85-12.29
			C562.68,31.6,569.42,38.66,582.65,33.31z M502.87,109.52c1.27,4.01,1.35,9.38,4.06,11.75c4.77,4.17,11.13,6.5,17.61,10.02
			C520.7,120.5,514.3,113.24,502.87,109.52z M423.75,80.76c-4.58,2.34-9.25,4.73-15.2,7.77c10.3,3.19,19.03,5.58,29.27,3.06
			C432.44,87.46,428.18,84.17,423.75,80.76z M306.38,125.75c-0.43-0.46-0.86-0.92-1.29-1.38c-6.4,7.69-12.8,15.37-19.82,23.81
			c4.1,1.96,6.12,2.94,8.13,3.9C297.87,143.01,302.13,134.38,306.38,125.75z M-48.2,117.5c-8.73-5.5-15.9-10.01-23.66-14.9
			C-70.52,115.53-63.55,120.15-48.2,117.5z M-83.97,115.88c-0.04-8.21-0.08-15.81-0.13-24.04c-4.21,4.76-7.85,8.86-11.65,13.15
			C-91.89,108.56-88.27,111.91-83.97,115.88z M266.93,339.88c-3.25-9.28-6.56-18.73-9.74-27.81
			C250.5,318.35,253.5,327.68,266.93,339.88z M-62.99,240.49c3.84,2.73,7.14,5.07,10.45,7.42c0.36-0.27,0.72-0.55,1.08-0.82
			c-2.18-5.04-4.35-10.09-7.12-16.52C-60.5,234.89-61.62,237.41-62.99,240.49z M98.57,494.44c0.52,5.71,0.99,10.91,1.52,16.68
			C105.11,501.12,104.56,494.69,98.57,494.44z"/>
		<path class="st2" d="M-249.26,333.18c25.6-0.15,51.2-0.74,76.79-0.2c9.11,0.19,18.41,2.34,27.15,5.1
			c7.21,2.28,13.71,6.77,22.06,11.07c-3.77-7.19-6.72-14.21-10.89-20.4c-4.22-6.26-9.46-11.88-14.57-17.48
			c-12.66-13.87-14.01-28.92-5.22-45.2c1.87-3.46,3.84-6.86,6.51-10.22c-6.17,18.02,3.66,30.41,14.41,42
			c13.49,14.54,22.42,30.5,20.5,51.1c-1.25,13.45-4.66,26.25-12.3,37.45c-4.11,6.03-4.34,10.81,0.99,15.97
			c2.71,2.62,4.73,5.94,7.3,8.73c18.8,20.37,21.67,43.45,11.55,68.61c-6.35,15.8-16.32,29.27-27.29,41.95
			c-2.89-8.82-5.69-17.32-8.89-27.09c-4.76,7.82-7.95,14.19-12.19,19.78c-8.72,11.5-21.35,16.69-34.78,20.78
			c-9.9,3.01-19.64,6.85-28.99,11.29c-6.01,2.85-9.19,8.51-8.77,15.36c9.52-2.75,18.59-6.17,27.98-7.91
			c22.17-4.12,43.93,0.29,65.61,4.57c8.79,1.73,17.57,3.56,26.85,5.45c3.6-14.21,4.64-28.74,14.66-40.03
			c-1.28,9.65-3.19,19.04-3.63,28.5c-0.58,12.53,0.86,13.41,13.17,11.82c16.73-2.16,32.51-6.7,45.55-18.15
			c1.95-1.71,4.02-3.29,6.94-5.66c-19.26-12.57-39.76-21.29-51.89-40.7c-3.45,2.23-6.19,3.99-8.93,5.76
			c7.7-6.66,3.97-13.22,1.03-20.75c-6.48-16.6-8.49-33.6,1.02-50.08c1.16-2.01,2.84-3.73,4.28-5.58
			c-1.73,12.78-0.69,25.15,5.41,38.28c1.23-13.93-1.21-29.71-5.54-38.18c-4.09-11.04-8.27-22.04-12.26-33.12
			c-4.17-11.59-9.4-22.97-11.99-34.91c-6.46-29.79,7.6-51.34,30.38-68.47c4.24-3.19,9.43-5.12,14.94-6.54
			c-0.7,0.65-1.31,1.44-2.1,1.94c-23.41,14.62-31.14,35.79-24.36,61.88c3.67,14.15,8.95,27.98,14.55,41.51
			c8.98,21.69,16.7,43.56,14.06,67.5c-0.82,7.44-2.97,14.85-5.45,21.94c-1.24,3.54-1.12,5.77,1.59,7.96
			c7.36,5.94,14.49,12.22,22.23,17.62c6.98,4.87,14.64,8.74,21.22,12.59c2.85-3.03,5.41-5.75,8.69-9.23
			c-5.64-5.9-12.04-12.47-18.3-19.18c-5.81-6.24-12.14-12.15-17.06-19.05c-12.64-17.77-7.07-45.89,11.53-59.15
			c0.43,6.82,2.31,12.64,9.4,14.95c6.33,4.42,12.67,8.82,18.99,13.26c13.8,9.67,17.8,19.5,13.48,35.56
			c-1.31,4.86-4.56,9.2-7.4,14.69c8.98,13.41,19.49,28.33,16.12,46.52c-2.31,12.44-8.81,24.1-14.65,35.95
			c-2.75-14.63-13.24-21.89-22.69-28.95c-9.46,8.36-17.73,17.4-27.66,23.94c-9.69,6.39-21.07,10.22-32.28,15.45
			c2.87,3.2,6.66,6.75,9.65,10.88c10.52,14.57,22.43,28.46,30.71,44.24c11.16,21.25,9.05,43.09-6.27,64.94
			c0.73-4.73,1.19-7.52,1.6-10.31c2.81-19.31-3.69-36.27-14.53-51.49c-8.64-12.14-19-23.04-28.15-34.84
			c-4.89-6.31-8.74-13.42-13.27-20.02c-1.05-1.53-2.83-3.26-4.51-3.56c-21.01-3.71-42.02-7.59-63.14-10.58
			c-15.8-2.24-31.83-2.61-47.3,2.27c-6.61,2.09-12.71,5.77-20.89,9.6c0.47-6.41-0.14-12.78,1.53-18.47
			c6.88-23.45,21.85-39.37,45.47-46.96c10.78-3.46,21.8-6.73,31.83-11.82c10.58-5.38,11.94-20.12,3.49-28.39
			c-14.49-14.2-28.07-29-36.38-47.88c-7.8-17.73-10.75-35.98-4.82-54.76c1.92-6.1,5.74-11.6,9.6-17.04
			c-7.78,38.36,9.01,67.03,34.28,92.66c6,6.08,12.23,12.05,17.39,18.81c5.11,6.7,9.01,14.33,13.38,21.46
			c6.72-5.01,12.01-19.37,10.71-30.9c-20.93,5.11-38.46-8.47-39.95-30.29c-1.27-18.61,6.19-34.4,15.54-49.34
			c4.2-6.71,2.54-11.07-2.09-15.5c-7.86-7.5-17.88-10.55-28.24-12.47c-24.96-4.62-50.11-3.81-75.27-2.46
			c-2.37,0.13-4.74,0.08-7.11,0.12C-249.19,345.53-249.23,339.35-249.26,333.18z M-41.6,443.28c8.32,18.55,23.93,28.23,35.83,42.2
			C-3.05,469.54-6.64,465.38-41.6,443.28z M-118.58,441.07c-6.97-8.6-13.95-17.2-21.67-26.72
			C-139.47,429.03-131.88,438.75-118.58,441.07z M0.16,535.25c0.49-0.25,0.97-0.51,1.46-0.76c-3.47-6.75-6.93-13.51-11.2-21.81
			c-1.61,5.04-2.64,8.24-3.59,11.21C-8.39,527.96-4.12,531.61,0.16,535.25z"/>
		<path class="st2" d="M133.65-20.88c2.54,7.12,4.92,14.29,7.64,21.34c7.05,18.3,5.55,36.18-4.31,52.74
			c-8.41,14.12-18.33,27.33-28.55,40.62c-1.28-12.25-5.95-21.91-15.62-29.68C77.52,78.26,60.57,74.26,43.8,67.26
			c-9.61-4.01-18.74-9.17-28.07-13.84C3.4,47.25-9.23,43.05-25.39,47.41c4.38,1.69,7.01,2.7,9.63,3.71
			c20.55,7.94,41.54,14.94,61.48,24.19c10.46,4.85,19.91,12.78,28.31,20.88c8.18,7.89,9.99,18.99,6.32,29.85
			c-4.17,12.36-7.85,25.16-18.01,36.18c-1.42-20.9-13.9-32.2-30.28-39.12c-17.43-7.36-35.82-12.41-53.4-19.46
			c-12.46-5-24.58-11.07-36.19-17.81c-5.06-2.94-8.75-8.54-12.54-13.35C-82.8,56.3-74.93,37.1-61.03,25.59
			c-3.61,7.17-6.2,14.11-1.87,22.06c5.48,10.06,11.98,19.37,22.54,23.92c19.55,8.44,39.56,15.79,59.4,23.56
			c7.5,2.94,15.55,4.91,22.45,8.88c9.69,5.58,18.54,12.61,26.51,18.15c-1.33-1.98-3.5-6.11-6.5-9.52
			c-9.47-10.78-21.8-17.64-34.82-22.87C7.55,82.09-11.97,75.39-31.28,68.15c-5.52-2.07-10.88-4.55-16.16-6.78
			c3.34-19.45,21.03-34.59,40.94-35.95c2.4-0.16,5.99-1.22,6.84-2.95C8.89,5.08,20.82-9.3,36.74-20.37
			c20.9-0.11,41.8-0.22,62.71-0.33c8.85,9.15,12.71,20.06,9.71,32.47c-1.99,8.22-5.56,16.05-8.29,24.11
			c-0.54,1.61-0.44,3.44-0.64,5.17c1.68-0.34,3.35-0.68,4.36-0.88c0.69,2.6,0.58,5.86,2.16,7.53c6.96,7.36,11.16,15.8,11.54,26.47
			c13.04-11.12,18.9-24.27,15.98-40.68c-0.91-5.11-2.13-10.23-3.87-15.11c-3.18-8.92-6.71-17.73-10.4-26.45
			c-1.92-4.54-1.79-8.64,0.82-12.74C125.1-20.84,129.38-20.86,133.65-20.88z M86.8-2.37C63.22-19.93,10.82-5.45,5.17,25.47
			c9.16,4.2,18.15,8.36,27.18,12.43c9.27,4.19,18.35,8.94,27.93,12.23c7.09,2.44,14.84,2.92,24.3,4.64
			C73.42,33.65,79.64,15.7,86.8-2.37z M91.79,1.84c-4.82,10.93-2.65,25.71,4.68,32.91C100.42,22.96,100.1,12.12,91.79,1.84z"/>
		<path class="st2" d="M602.46,499.66c-1.93,2.63-3.86,5.27-6.58,8.96c-1.73-18.77-10.1-31.69-28.82-33.88
			c-18.94-2.21-35.01,4.09-46.26,20.26c5.25-21.98,23.27-35.56,54.5-40.38c-5.18-5.53-10.44-10.27-14.63-15.83
			c-7.95-10.56-16.54-20.94-22.56-32.58c-8.56-16.56-3.89-33.54,10.5-47.01c1.53-1.43,3.16-2.77,5.46-4.77
			c-12.61-8.36-23.02-18.08-26.82-32.96c-3.72-14.55-0.49-28.21,5.49-42.16c-5.04-3.95-10.31-7.88-15.35-12.08
			c-14.28-11.92-24.57-26.24-27.08-45.28c-2.47-18.77,7.8-42.79,24.17-53.37c-1.8,3.25-2.8,5.16-3.9,7.02
			c-11.36,19.1-10.36,39.37,2.73,57.4c9.25,12.75,21.52,21.97,34.69,30.18c16.9,10.53,32.19,22.76,42.42,40.28
			c11.86,20.33,13.76,41.74,5.5,63.65c-2.41,6.39-7.21,11.88-12.3,17.88c-3.95-15.58-14.71-23.45-27.59-29.25
			c-8.66,7.99-11.7,22.22-5.47,33.9c5.54,10.37,12.45,20.13,19.72,29.41c10.18,12.98,21.25,25.27,31.93,37.85
			C602.31,471.16,602.38,485.41,602.46,499.66z M539.99,284.25c-5.04,15.67,0.68,33.11,14.99,43.98
			c10.68,8.11,22.15,15.19,33.53,22.9C585.41,319.3,564.73,300.58,539.99,284.25z"/>
		<path class="st2" d="M-204.11-19.08c-0.35,10.34,4.39,18.53,10.36,26.55c19.92,26.78,15.77,59.95-10.41,82.23
			c-0.87-4.78-1.68-9.28-2.88-15.89c-8.36,10.57-14.1,20.48-16.46,32.21c-3.24,16.09,0.58,31.62,4.02,47.14
			c5.01,22.6,8.87,45.3,3.63,68.37c-4.51,19.86-14.41,35.9-33.77,44.67c-0.02-2.85-0.03-5.7-0.05-8.55c2.02-2.2,4.39-4.16,5.98-6.63
			c6.69-10.39,9.96-21.93,11.02-34.18c1.97-22.64-3.81-44.3-8.24-66.12c-3.76-18.52-4.33-36.71,4.28-54.27
			c6-12.24,14.34-22.17,27.4-27.8c-9.06-18.56-22.5-30.66-41.66-36.17c-0.04-7.13-0.08-14.25-0.11-21.38
			c29.96,5.14,49.13,22.17,57.36,51.86c0.64-3.71,0.87-7.35,0.55-10.95c-1-11.41-7.72-20.21-14.03-29.03
			c-9.91-13.86-11.27-27.7-1.29-42.04C-206.96-19.07-205.53-19.08-204.11-19.08z"/>
		<path class="st2" d="M-245.74,994.44c22.22-1.66,41.45,5.3,57.79,20.56c0.52-0.45,1.03-0.9,1.55-1.36
			c-6.41-9.16-12.49-18.57-19.34-27.39c-5.51-7.1-11.85-13.57-17.99-20.17c-12.06-12.95-15.96-28.14-12.91-45.37
			c2.27-12.85,4.69-25.63,14.18-37.2c-1.55,8.66-3.08,16.03-4.16,23.46c-1.96,13.45,1.88,25.32,10.41,35.78
			c10.94,13.4,22.27,26.51,32.71,40.29c20.13,26.58,18.97,54.95,5.48,83.84c-1.63,3.5-4.86,6.24-7.36,9.34
			c-0.82-0.41-1.63-0.82-2.45-1.22c0.2-2.1-0.09-4.4,0.68-6.26c4.42-10.54,1.29-19.68-5.45-27.74
			c-12.76-15.27-28.47-25.58-48.95-27.16c-1.39-0.11-2.74-0.57-4.12-0.87C-245.67,1006.79-245.7,1000.62-245.74,994.44z"/>
		<path class="st2" d="M600.84,196.11c-10.69,13.64-25.25,15.98-41.36,14.64c-8.55-0.71-17.39-1.72-26.34,3.83
			c17.01,12.65,35.27,12.45,54.03,9.42c0.46,8.97-4.8,16.41-12.98,17.94c-15.34,2.87-30.32,1.66-44.36-5.43
			c-9.43-4.77-10.2-8.09-5.68-17.55c10.19-21.31,19.69-26.94,43.15-25.72c11.57,0.6,23.34,2.18,33.49-5.68
			C600.81,190.4,600.83,193.25,600.84,196.11z"/>
		<path class="st2" d="M605.45,1061.16c-10.47-9.92-21.79-19.08-31.23-29.9c-22.79-26.12-21.57-53.68-4.75-82.8
			c0.81-1.39,1.65-2.76,2.48-4.14c0.73,0.47,1.47,0.94,2.2,1.41c-1.05,3.46-1.47,7.3-3.26,10.33c-6.38,10.82-5.65,21.78-1.34,32.83
			c7.19,18.4,19.83,32.44,35.74,43.77C605.35,1042.16,605.4,1051.66,605.45,1061.16z"/>
		<path class="st2" d="M-248.7,437.21c9.85-0.07,20-1.73,29.48,0.1c21.6,4.17,32.36,21.81,27.98,43.47
			c-2.51,12.41-7.85,23.44-16.35,32.75c-0.58-0.24-1.16-0.48-1.74-0.73c0.82-2.23,1.24-4.72,2.52-6.64
			c9.15-13.75,12.71-28.34,1.77-42.14c-10.94-13.82-26.54-17.17-43.6-13.99C-248.66,445.76-248.68,441.49-248.7,437.21z"/>
		<path class="st2" d="M605.8,1126.72c-7.38-6.17-15.05-12.05-22.08-18.6c-9.35-8.71-11.07-17.13-5.91-28.79
			c2.58-5.82,6.35-11.12,9.58-16.66c0.72,0.32,1.44,0.64,2.17,0.95c-0.59,2.1-0.75,4.47-1.86,6.24c-3.93,6.29-1.47,11.42,2.87,15.89
			c4.76,4.89,10.03,9.28,15.08,13.89C605.71,1108.67,605.75,1117.69,605.8,1126.72z"/>
		<path class="st2" d="M604.21,827.44c-10.75-1.9-20.5-5.74-27.85-14.3c-7.74-9.02-8.08-13.01-1.81-23.3
			c1.45-2.38,3.04-4.69,5.33-8.21c4.63,12.59,13.21,19.8,24.21,24.43C604.13,813.19,604.17,820.32,604.21,827.44z"/>
		<path class="st2" d="M603.27,650.72c-4.46,0.51-8.98,0.71-13.36,1.59c-10.59,2.14-19.73,6.63-25.27,16.61
			c-0.95,1.72-2.51,3.1-4.48,5.48c3.37-20.47,24.96-40.4,43.02-40.78C603.2,639.32,603.23,645.02,603.27,650.72z"/>
		<path class="st2" d="M-219.78-19c-3.01,7.96-6.01,15.92-8.83,23.37c-1.89-8.11-3.66-15.7-5.42-23.29
			C-229.28-18.95-224.53-18.97-219.78-19z"/>
		<path class="st2" d="M184.48,585.88c-6.3,1.67-11.69,3.1-17.36,4.61c6.15-4.54,13.68-7.78,17.42-13.51
			c3.91-5.99,4.07-14.38,6.09-21.66c0.66-2.37,2.05-4.53,3.44-7.5c1.02,8.39,1.59,15.81,3.02,23.07c0.38,1.93,3.48,4.83,5.21,4.75
			c17.55-0.81,33.8,3.63,49.26,11.32c7.28-9.44,5.76-18.23-4.31-23.84c-4.74-2.64-9.86-4.63-14.91-6.68
			c-19.1-7.77-28.07-23.57-22.09-43.33c3.82-12.64,10.83-24.31,17.39-36.25c0.66,11.28,7.29,18.59,14.27,25.67
			c2.67,2.7,5.43,5.33,8.36,7.73c20.16,16.48,23.75,37.83,16.05,61.07c-4.34,13.09-11.83,25.14-17.92,37.69
			c-14.68-7.23-28.13-13.85-41.58-20.47c-0.71,0.9-1.42,1.8-2.13,2.69c7.29,8.14,13.93,17.01,22.01,24.28
			c17.46,15.71,36.15,30.07,53.37,46.02c10.55,9.77,20.23,20.8,28.75,32.41c26.57,36.22,27.13,72.13,2.75,109.83
			c-0.77,1.2-1.44,2.5-2.4,3.53c-4.84,5.18-5.32,10.92-5.1,18.07c1.54,50.37-53.98,84.67-93.6,66.86
			c-21.03-9.45-30.97-28.07-36.36-49.19c-6.43-25.19-3.62-50.03,6.17-73.92c2.55-6.22,7.37-11.5,11.86-18.29
			c-3.32-2.76-7.1-5.9-11.44-9.5c4.73-6.07,9.04-11.6,14.29-18.34c5.57,5.34,10.96,10.13,15.8,15.43c1.01,1.1,0.68,4.47-0.26,6.08
			c-2,3.44-4.81,6.42-7.16,9.42c3.08,4.55,9.16,9.78,8.24,13c-1.74,6.1-7.51,11.06-12.34,17.48c-4.61-5.46-8.55-10.11-13.83-16.37
			c-2.12,6.41-3.93,10.26-4.63,14.3c-4.5,25.92-0.09,50.18,15.15,71.86c13.77,19.59,37.59,27.45,61.31,19.59
			c9.27-3.07,17.83-8.61,26.31-13.67c8.23-4.91,11.19-12.33,10.36-22.28c-0.77-9.18-4.67-14.67-13.09-17.22
			c-5.44-1.65-11.02-2.8-16.53-4.23c-17.15-4.46-26.49-16.24-26.86-33.86c-0.29-13.53,5.47-36.5,13.12-51.01
			c6.58,18.49,22.27,29.08,32.81,43.68c6.69,9.28,11.48,19.93,17.18,30.06c15.45-16.78,21.21-36.93,14.36-60.07
			c-7.23-24.43-22.42-43.87-40.67-60.85c-14.4-13.4-29.97-25.55-44.87-38.42c-7.36-6.35-14.7-12.79-21.52-19.7
			C196.95,615.14,187.7,602.89,184.48,585.88z M243.79,756.96c-2.36,21.85,10.99,38.47,32.96,39.67
			C265.67,783.29,254.59,769.96,243.79,756.96z M219.28,506.91c-2.31,14.46,10.73,29.25,30.28,32.53
			C239.4,528.52,229.16,517.52,219.28,506.91z"/>
		<path class="st2" d="M11.02,781.57c0.03,20.79,9.77,33.46,26.78,42.37c4.47-22.5,2.76-43.86-3.81-64.64
			c-6.07-19.2-13.21-38.07-20.2-56.97c-11.89-32.14-12.51-63.7,5.42-93.9c9.86-16.61,24.97-26.75,45.62-32.14
			c-5.14,4.17-8.97,6.81-12.25,10.01c-23.16,22.55-28.88,50.1-21.18,80.47c3.89,15.32,10.08,30.09,15.61,44.96
			c10.35,27.79,18.54,56.03,15.37,86.07c-1.2,11.38-4.66,22.52-7.37,35.03c12.08,3.31,25.27,6.19,37.95,10.55
			c19.44,6.69,39.42,12.68,57.57,22.05c32.57,16.82,45.43,50.97,34.54,86c-1.63,5.24-5.02,9.93-9.18,14.29
			c0.45-3.35,0.97-6.69,1.35-10.05c3.7-32.79-10.77-56.31-37.69-73.31c-18.71-11.81-39.81-17.57-60.82-23.51
			c-10.27-2.9-20.61-5.6-30.69-9.04c-3.94-1.34-5.77-0.2-8.5,2.31c-6.25,5.74-12.93,11.03-19.68,16.2
			c-2.08,1.59-4.93,2.19-8.81,3.82c7.66-10.03,14.29-18.7,21.37-27.97c-15.91-9.09-30.3-17.75-32.09-36.9
			C-0.55,797.54,4.13,790.08,11.02,781.57z"/>
		<path class="st2" d="M438.97,836.32c-3.81-13.67-11.54-22.66-19.61-31.39c-9.26-10.02-17.18-20.85-21.96-33.79
			c-5.8-15.67-5.59-31.4,1.15-46.47c4.67-10.46,11.12-20.14,17.4-30.04c-0.27,9.79,4.85,16.71,10.53,23.47
			c5.03,5.99,10.63,11.71,14.48,18.41c8.56,14.87,10.2,30.09-4.99,47.02c4.9-26.83-16.4-38.99-27.86-56.61
			c-3.04,6.21-3.2,12.15-0.37,21.87c4.01,13.73,11.73,25.26,21.19,35.83c5.36,5.99,10.83,12.06,15.14,18.81
			c11.77,18.45,11.84,37.91,3.71,57.84c-1.86,4.56-2.98,9.42-4.33,13.78c4.37,4.8,10.81,8.85,11.9,14.02
			c0.9,4.3-4.49,9.93-7.22,15.22c10.45,13.77,10.45,13.77-4.66,28.05c-5.21-5.97-10.45-11.98-16.44-18.85
			c1.96-2.61,5.46-7.28,9.45-12.6c-3.53-3.2-7.16-6.47-11.4-10.31c3.29-4.31,6.13-8.62,9.57-12.37c3.21-3.5,4.04-7.19,1.56-10.92
			c-5.85-8.8-10.84-18.73-18.5-25.63c-11.19-10.09-23.8-19-36.91-26.47c-22.97-13.08-33.13-33.02-34.99-58.25
			c-1.86-25.11,3.97-49.02,11.93-72.55c0.37-1.1,0.96-2.15,1.56-3.15c0.2-0.34,0.77-0.45,2.14-1.19c-0.99,3.85-1.77,6.98-2.61,10.1
			c-5.56,20.63-8.32,41.38-3.35,62.59c3.99,17.03,13.43,29.66,28.22,39.31c15.82,10.33,30.75,22.05,45.83,33.48
			C432.84,828.03,435.15,831.86,438.97,836.32z"/>
		<path class="st2" d="M541.74,800.1c-0.15-17.45-10.58-25.8-22.5-33.94c-2.68,3.04-5.27,5.97-7.85,8.9
			c-0.31-0.17-0.62-0.33-0.93-0.5c1.55-3.42,3.11-6.85,4.96-10.92c-4.68-2.77-9.36-5.44-13.95-8.28c-4.84-3-9.72-5.95-14.34-9.28
			c-12.47-8.97-14.24-16.31-7.1-29.65c4.02-7.51,8.39-14.82,13.03-22.95c-8.55-6.91-17.42-14.91-16.71-28.36
			c0.63-12.1,6.61-21.95,14.02-31.31c-0.21,1.16-0.23,2.39-0.65,3.47c-4.89,12.54-3.51,22.29,7.06,30.66
			c9.2,7.28,19.79,12.88,30.07,18.69c7,3.96,14.65,6.76,21.78,10.52c10.77,5.67,16.51,14.85,16.68,27.02
			c0.09,6.13-0.12,12.42-1.42,18.38c-3.81,17.49-9.23,34.51-17.27,50.59C545.68,795.01,544.21,796.61,541.74,800.1z M527.94,743.28
			c0.51-14.95-3.91-25.64-15.99-31.94c-7.86-4.1-16.04-4.81-24.65,0.4C496.1,728.65,513.23,733.17,527.94,743.28z M552.54,761.31
			c5.6-19.93,2.11-34.51-11.14-42.51c-2.85,8.73-5.74,17.58-7.71,23.64C540.61,749.37,546.89,755.65,552.54,761.31z"/>
		<path class="st2" d="M-215.22,766.54c-15.79-26.13-15.26-57.92,7.17-81.07c21.51-22.21,47.38-25.88,75.99-20.3
			c2.79,0.54,5.51,1.37,8.28,2.04c2.7,0.66,5.42,1.29,9.13,2.17c-5.18-9.17-12.47-14.22-21.01-17.33
			c-14.01-5.09-28.34-9.34-42.29-14.6c-5.9-2.22-11.63-5.51-16.64-9.35c-10.38-7.96-11.95-18.32-5.28-29.53
			c1.78-3,3.69-5.91,6.38-10.21c-0.44,14.05,7.32,21.55,17.57,26.17c11.4,5.14,23.44,8.83,35.22,13.12
			c6.22,2.27,12.65,4.08,18.67,6.79c13.83,6.25,21.38,17.34,24.1,32.16c1.8,9.8-5.02,15.82-9.48,22.81
			c-0.6,0.95-4.22,0.21-6.38-0.12c-13.3-2.02-26.52-5.17-39.89-6.04c-30.49-1.99-71.61,35.19-62.62,75.61
			C-215.75,761.39-215.58,763.98-215.22,766.54z"/>
		<path class="st2" d="M244.34,1054.2c0.98-10.32-0.24-20.87-5.97-30.61c-1.56-2.65-3.41-5.14-5.16-7.68
			c-12.71-18.51-12.7-23.42-0.71-40.96c3.95,7.33,7.4,15.73,12.56,22.91c12.65,17.61,12.57,36.18,5.79,55.53
			c-3.11,8.88-6.81,17.55-10.05,25.81c3.91,4.15,7.76,7.7,10.86,11.82c1.18,1.57,1.66,5.14,0.67,6.61
			c-3.38,5.05-7.55,9.56-11.75,14.69c-5.94-6.39-11.26-12.12-17.23-18.56c1.98-2.63,4.28-6.54,7.39-9.62
			c4.51-4.48,3.83-8.83-0.45-12.04c-9.62-7.19-19.16-14.84-29.79-20.22c-14.98-7.57-31.15-12.77-46.39-19.88
			c-14.99-7-28.26-16.54-37.46-30.82c-11.78-18.29-11.14-46.33,1.54-64.02c0.77-1.08,1.77-2,2.97-3.34
			c-0.62,8.85-2.15,17.05-1.58,25.1c1.36,18.92,11.69,33.37,27.18,42.94c14.61,9.03,30.66,15.76,46.21,23.24
			c8.54,4.11,17.7,7.04,25.91,11.69C227.63,1041.75,235.58,1048.12,244.34,1054.2z"/>
		<path class="st2" d="M523.31,841.81c-1.63,15.6,5.7,26.48,13.1,37.25c9.17,13.35,18.62,26.56,19.13,43.63
			c0.66,21.83-3.51,42.34-17.53,61c-14.18-19.64-34.46-26.41-56.9-27.93c-23.23-1.57-42.21,8.78-59.6,23.19
			c1.5-18.78,35.96-38.84,54.7-41.24c25.24-3.24,47.88,2.79,67.23,19.96c4.14-13.1,0.89-21.62-10.48-27.57
			c-3.77-1.97-7.79-3.46-11.72-5.13c-18.26-7.77-25.6-21.78-21.56-41.15C502.98,868.04,511.43,855.08,523.31,841.81z M511.14,874.16
			c-1.47,16.71,6.08,28.73,19.01,31.21C523.99,895.25,517.77,885.04,511.14,874.16z"/>
		<path class="st2" d="M42.78,1046.53c-4.32-11.87-7.74-22.72-12.15-33.14c-12.78-30.17-61.69-44-88.46-19.13
			c-1.3,1.21-2.86,2.15-4.7,3.51c4.5-19.58,30.13-35,45.28-35.16c36.51-0.39,57.74,18.38,67.14,52.79
			c2.85-14.96,0.21-28.6-8.76-40.29c-7.91-10.32-16.89-19.85-25.58-29.56C4.18,932.86-1.3,918.26,0.46,901.16
			c0.78-7.61,4.15-13.69,11.12-18.96c0.17,2.16,0.39,3.24,0.32,4.3c-1.1,16.14,4.61,29.72,15.48,41.39
			c6.14,6.6,12.34,13.15,18.31,19.9c15.78,17.87,21.02,38.57,14.88,61.55c-2.61,9.77-6.89,19.13-10.95,28.44
			C48.19,1041.03,45.15,1043.58,42.78,1046.53z"/>
		<path class="st2" d="M-166.77,708.39c3.99,14.88,9.27,18.91,24.25,15.87c11.06-2.24,21.68-6.69,32.45-10.3
			c6.96-2.33,13.67-5.6,20.77-7.24c12.31-2.84,24.69-2.58,33.06,8.65c8.86,11.89,11.72,25.34,5.39,39.55
			c-2.09,4.68-4.9,9.05-7.84,14.39c-7.62-12.02-18.11-11.84-29.25-8.65c-18.51,5.3-34.43,15.66-50.49,25.83
			c-6.95,4.4-14.3,8.53-21.99,11.35c-9.34,3.43-14.77-0.75-15.22-10.64c-0.56-12.3,2.03-23.86,9.39-34.86
			c0.03,5.66-0.38,10.57,0.18,15.38c0.95,8.25,5.3,11.72,13.22,9.32c7.15-2.17,13.93-5.84,20.54-9.46
			c14.13-7.74,27.67-16.66,42.2-23.53c8.23-3.9,17.92-4.7,26.83-6.87c-2.1-6.48-10.6-13.06-21.07-12.66
			c-8.38,0.31-16.89,2.18-24.94,4.65c-11.98,3.68-23.53,8.76-35.45,12.69c-4.42,1.46-9.36,1.93-14.04,1.83
			c-12.64-0.27-19.15-10.36-14.48-22.25C-171.57,717.09-169.12,713.04-166.77,708.39z"/>
		<path class="st2" d="M-73.61,797.64c-0.72,3.57-0.63,5.81-1.59,7.42c-4.9,8.23-2.8,16.1,1.14,23.7
			c3.49,6.73,7.35,13.3,11.51,19.63c9.44,14.36,9.64,28.92,1.43,43.7c-3.1,5.58-6.62,10.95-10.26,16.19
			c-1.37,1.97-3.62,3.33-6.57,5.94c-7.01-31.08-28.11-47.11-55.1-56.46c-26.76-9.26-53.4-10.57-78.26,6.53
			c-2.28-7.16,0.45-13.74,7.35-18.59c16.35-11.5,34.83-14.9,54.22-12.82c30.52,3.29,56.81,14.86,74.55,41.35
			c2.96,4.42,4.94,9.51,7.37,14.29c0.59-0.19,1.19-0.38,1.78-0.57c-1.67-5.37-2.67-11.08-5.15-16.04
			c-4.12-8.26-9.43-15.92-13.8-24.06c-7.79-14.52-5.1-34.12,6.12-46.45C-77.85,800.26-76.35,799.56-73.61,797.64z"/>
		<path class="st2" d="M106.14,587.71c-8.31-19.05-5.76-35.07,8.29-47.62c-6.57,12.61-1.49,22.24,5.12,31.21
			c5.48,7.43,11.7,14.31,17.67,21.37c9.02,10.66,15.9,22.44,18.77,36.24c0.72,3.46,1.5,7.09,1.19,10.55
			c-1.56,17.54-8.03,33.39-17.36,48.48c-1.65-13.91-10.44-21.94-21.43-28.8c-2.42,2.73-4.7,5.29-6.98,7.86
			c-0.23-0.13-0.47-0.26-0.7-0.4c1.33-3.15,2.66-6.29,4.12-9.73c-7.89-4.89-15.69-9.37-23.11-14.4
			c-13.92-9.45-15.3-15.48-7.55-30.19C93.12,595.28,95.11,593.02,106.14,587.71z M125.45,637.89c1.87-12.15-2.54-22.02-12.05-27.45
			c-7.55-4.31-15.31-5.58-23.62-0.28C97.5,625.07,112.83,629.08,125.45,637.89z M129.98,639.78c5.68,5.22,10.8,9.93,15.93,14.64
			c0.56-0.19,1.13-0.38,1.69-0.57c-3.24-9.11-6.49-18.23-9.73-27.34c-0.62,0.17-1.24,0.35-1.86,0.52
			C134.01,631.26,132.01,635.48,129.98,639.78z"/>
		<path class="st2" d="M338.32,912.72c-1.16,2.99-1.67,6.48-3.57,8.88c-11.17,14.06-9.49,29.32-2.42,43.64
			c5.9,11.96,13.98,23.06,22.34,33.54c10.41,13.04,20.8,25.81,26.2,41.97c9.87,29.54-1.95,66.87-27.95,84.45
			c0.8-3.11,0.87-5.52,1.97-7.3c5.05-8.15,2.18-15.3-3.14-21.51c-6.32-7.37-13.49-13.99-20.24-20.99
			c-14.55-15.08-12.29-34.73,6.4-47.82c-0.89,2.84-1.05,5.09-2.18,6.63c-4.85,6.6-2.28,12.26,2.27,17.28
			c6.37,7.02,13.25,13.58,19.83,20.42c9.25,9.61,11.4,15.08,10.8,28.74c5.3-10.21,5.39-19.59,3.94-28.95
			c-2.84-18.33-11.26-34.01-23.32-48c-7.73-8.97-15.72-17.9-22.1-27.81c-18.15-28.18-13.37-54.61,6.48-81.05
			c0.88-1.18,2.38-1.89,3.6-2.82C337.58,912.26,337.95,912.49,338.32,912.72z"/>
		<path class="st2" d="M288.07,219.55c3.47,33.32,11.58,41.21,34.58,35.64c-3.07,17.74-18.22,23.43-35.3,11.92
			c6.57,16.79,15.53,30.39,27.87,41.65c12.72,11.6,27.48,17.52,45.09,13.82c-1.54,14.53-8.48,20.7-21.78,19.98
			c-11.8-0.64-22.27-4.94-31.13-12.56c-19.18-16.49-31.76-37.15-35.92-62.17C268.5,249.82,275.77,234.68,288.07,219.55z"/>
		<path class="st2" d="M469.89,1199.71c12.3-37.18-0.89-69.39-19.13-100.63c-8.49-14.53-18.69-28.51-21.12-45.56
			c-2.53-17.77,3.05-34.14,12.54-49.17c0.57-0.9,1.74-1.42,4.3-3.44c-1.49,5.12-2.23,8.48-3.43,11.66
			c-4.91,13.03-3.78,25.73,2.42,37.91c5.27,10.35,10.94,20.51,16.75,30.57c11.86,20.56,20.75,42.11,23.2,65.96
			c1.51,14.73-0.64,28.92-6.7,42.39c-1.77,3.93-4.56,7.41-6.88,11.1C471.19,1200.24,470.54,1199.97,469.89,1199.71z"/>
		<path class="st2" d="M386.94,602.69c0.36-30.78-18.45-47.93-43.34-60.58c-3.53-1.79-7.6-3.15-11.51-3.42
			c-12.71-0.88-20.17,0.46-19.76,15.6c0.24,8.7-2.82,15.67-8.33,21.94c-0.56,0.64-1.36,1.09-3.24,2.56
			c0.97-21.43,5.37-40.01,21.53-53.74c7.98-6.78,17.68-6.96,26.97-3.64c21.03,7.51,36.99,21.07,45.76,41.96
			C401.15,577.95,397.5,594.12,386.94,602.69z"/>
		<path class="st2" d="M187.52,512.98c1.48-10.95-2.08-20.43-9.96-27.65c-7.46-6.84-15.95-12.57-24.01-18.76
			c-6.38-4.9-13.36-9.17-19.07-14.74c-11.81-11.51-12.75-22.21-4.32-36.29c1.29-2.16,2.64-4.3,5.04-8.2
			c-0.52,17.28,9.14,26.38,20.29,34.47c9.77,7.09,20.02,13.58,29.33,21.21c10.09,8.27,16.07,19.33,12.68,32.6
			c-1.58,6.19-6.67,11.48-10.19,17.16C187.3,512.77,187.52,512.98,187.52,512.98z"/>
		<path class="st2" d="M344.79,669.35c3.33-12.73,9.68-20.57,20.09-24.63c18.8-7.33,38.14-8.98,57.89-4.53
			c2.74,0.62,5.57,1.49,7.96,2.91c12.47,7.34,16.79,13.86,6.39,26.27c-1.36,1.62-2.65,3.29-4.27,5.31
			c-8.58-15.69-23.42-17.77-38.64-17.88C377.34,656.68,360.61,658.23,344.79,669.35z"/>
		<path class="st2" d="M277.43,416.83c1.03-3.38,2.22-8.17,3.97-12.76c2.64-6.95,7.83-11.37,15.17-12.47
			c6.06-0.91,12.24-1.13,18.38-1.39c7.1-0.3,14.26,0.17,21.31-0.52c16.53-1.64,24.56-7.6,35.24-25.14
			c-0.02,25.3-20.09,45.67-46.09,46.57c-8.52,0.29-17.15-0.63-25.58,0.31C292.3,412.28,284.98,414.94,277.43,416.83z"/>
		<path class="st2" d="M89.38,712.72c8.79,16.59,24.12,17.15,38.67,18.45c15.76,1.4,27.85-7.58,39.7-16.59
			c0.54,0.44,1.08,0.88,1.62,1.32c-2.85,4.97-4.94,10.63-8.68,14.8c-17.05,19-45.36,24.56-68.53,14.01
			c-1.72-0.78-3.4-1.72-4.96-2.78c-8.19-5.58-9.5-11.41-4.36-19.74C84.69,719.19,86.83,716.39,89.38,712.72z"/>
		<path class="st2" d="M186.31,310.97c3.87-4.94,8.19-10.47,13.1-16.74c5.43,4.56,10.42,8.76,15.82,13.3
			c3.41-4.13,6.98-8.45,11.28-13.65c5.34,4.99,10.58,9.37,15.07,14.41c1.24,1.4,1.23,5.39,0.12,7.11c-3.04,4.74-6.97,8.9-11.2,14.09
			c-4.59-5.43-8.8-10.41-13.28-15.7c-5.32,6.15-9.29,10.73-13.44,15.53C197.77,323,192.25,317.21,186.31,310.97z"/>
		<path class="st2" d="M-51.46,821.36c2.55-3.41,6.08-8.12,10.08-13.46c-3.64-3.38-7.24-6.72-11.3-10.48
			c4.32-5.6,8.6-11.15,13.89-18c5.67,5.44,11.06,10.23,15.89,15.53c0.99,1.09,0.59,4.46-0.35,6.09c-1.98,3.43-4.76,6.41-6.97,9.28
			c3.07,4.72,9.06,10.02,8.1,13.29c-1.79,6.09-7.61,10.99-12.2,16.96C-40.37,833.79-45.7,827.82-51.46,821.36z"/>
		<path class="st2" d="M-31.07,609.25c1.95-2.59,5.47-7.26,9.61-12.73c-3.82-3.41-7.47-6.65-11.56-10.3
			c4.46-5.68,8.81-11.21,14.11-17.95c5.58,5.37,10.9,10.21,15.78,15.44c0.95,1.02,0.95,4.05,0.13,5.38
			c-2.21,3.61-5.09,6.81-7.69,10.17c3.09,4.3,9.45,9.5,8.56,12.7c-1.7,6.12-7.52,11.09-11.74,16.69
			C-19.72,622.06-25.11,615.98-31.07,609.25z"/>
		<path class="st2" d="M327.58,573.47c3.61-4.55,7.98-10.06,12.47-15.73c1.31,0.83,2.15,1.23,2.85,1.81
			c19.58,16.26,18.68,14.19,1.45,32.52C339,586.14,333.65,580.21,327.58,573.47z"/>
		<path class="st2" d="M211.22,463.7c-5.88-6.39-11.31-12.31-17.36-18.88c3.61-4.59,7.95-10.1,13.22-16.81
			c5.61,5.33,11.01,10.1,15.87,15.36c0.98,1.07,0.68,4.55-0.34,6.01C219.26,454.23,215.31,458.66,211.22,463.7z"/>
		<path class="st2" d="M-176.67,375.94c3.45-4.49,7.74-10.08,12.94-16.86c5.6,5.39,10.94,10.24,15.83,15.5
			c0.96,1.03,0.97,4.19,0.1,5.45c-3.48,4.99-7.48,9.62-11.72,14.92C-165.45,388.38-170.81,382.44-176.67,375.94z"/>
		<path class="st2" d="M328.25,309.04c-5.12-5.74-10.29-11.54-16.22-18.19c3.53-4.55,7.9-10.18,12.45-16.04
			c2.18,1.47,3.76,2.43,5.23,3.54C345.4,290.24,345.16,296.86,328.25,309.04z"/>
		<path class="st2" d="M439.9,385.65c-5.52-6.24-10.84-12.24-16.63-18.79c3.53-4.48,7.87-10,12.11-15.39
			c0.9,0.23,1.41,0.25,1.8,0.47C456.06,362.81,456.82,369.64,439.9,385.65z"/>
		<path class="st2" d="M-20.74,955.59c-3.08-3.41-5.7-6.47-8.51-9.35c-2.65-2.7-5.51-5.19-9.01-8.45
			c4.44-5.64,8.91-11.31,13.42-17.02c1.22,0.66,2.14,0.98,2.84,1.57C-1.85,939.32-3.33,936.09-20.74,955.59z"/>
		<path class="st2" d="M421.82,181.94c-1.2,3.46-1.05,9.05-7.09,7.76c-5.22-1.12-5.39-6.16-4.24-10.49
			c1.3-4.86,3.28-9.55,6.28-13.86c-1.05,3.77-2.52,7.48-2.98,11.32c-0.24,1.97,0.82,4.71,2.27,6.04
			C416.94,183.51,419.68,182.29,421.82,181.94z"/>
		<path class="st2" d="M297.05,528.13c-0.84,2.1-1.68,4.2-2.96,7.36c-1.2-2.81-1.71-5.02-2.96-6.67c-2.09-2.78-4.77-5.12-6.97-7.83
			c-1.66-2.05-2.95-4.39-3.6-7.17c8.16-0.29,9.85,5.54,12.44,10.66c0.77,1.52,2.67,2.46,4.05,3.67L297.05,528.13z"/>
		<path class="st2" d="M297.06,528.14c0.18-4.88-0.07-9.84,0.75-14.61c0.32-1.85,3.06-3.28,4.7-4.9c1.18,2.38,2.37,4.76,3.55,7.13
			c-0.65,0.34-1.3,0.68-1.95,1.02c-1.25-0.89-2.5-1.78-5.29-3.78c-0.68,5.77-1.22,10.45-1.77,15.12
			C297.05,528.13,297.06,528.14,297.06,528.14z"/>
		<path class="st2" d="M-206.93,290.64c5.52,4.77,10.3,8.9,15.65,13.52c3.37-4.06,6.89-8.3,11.38-13.7
			c5.42,5.15,10.81,9.92,15.66,15.18c1.02,1.1,0.89,4.57-0.1,5.99c-3.37,4.82-7.35,9.21-11.8,14.62
			c-4.62-5.35-8.89-10.3-13.42-15.54c-4.98,5.82-8.94,10.44-13.29,15.52c-5.88-6.3-11.35-12.15-17.33-18.56
			C-216.32,302.72-212.03,297.19-206.93,290.64z"/>
		<path class="st2" d="M-48.59,324.38c2.37-2.98,6.72-8.48,10.87-13.71c1.24,0.29,1.76,0.28,2.12,0.52
			c19.02,12.45,19.4,16.11,3.61,32.55C-37.2,337.66-42.45,331.53-48.59,324.38z"/>
		<path class="st2" d="M-190.65,174.45c-4.24-5.73-5.46-12.58-13-14.86c-1.15-0.35-1.32-3.91-2.19-6.8
			c7.66,1.83,7.66,1.83,15.09,15.93c0.8-5.18,1.05-9.79,2.35-14.07c0.67-2.22,3.19-3.87,4.87-5.78c1.34,2.2,2.69,4.4,4.03,6.6
			c-0.54,0.44-1.08,0.89-1.62,1.33c-1.67-0.77-3.34-1.54-5.72-2.64C-188.18,161.33-189.42,167.89-190.65,174.45z"/>
		<path class="st2" d="M63.16,175.73c-0.39,15.57,9.07,24.59,20.04,32.51c8.27,5.96,17.01,11.3,25.03,17.57
			c4.79,3.74,9.27,8.28,12.72,13.26c9.04,13.04,7.12,26.96-5.43,41.25c1.98-19.05-9.36-29.8-22.58-39.33
			c-7.69-5.54-15.71-10.65-23.36-16.25c-3.41-2.5-6.59-5.47-9.36-8.68C49.1,203.13,49.92,190.95,63.16,175.73z"/>
		<path class="st2" d="M-29.17,160.08c9.28-33.09,45.12-44.37,69.99-22.61c4.63,4.05,8.74,10.69,9.63,16.65
			c2.52,16.89-1.67,32.59-13.29,46.11c5.2-20.12,7.35-39.11-15.82-49.72C1.5,141.41-13.14,144.15-29.17,160.08z"/>
		<path class="st2" d="M172.24,54.08c11.8,13.5,11.62,14.71-3.93,28.7c-2.82-2.72-5.65-5.49-8.53-8.21
			c-2.91-2.75-5.86-5.46-9.25-8.6c3.54-4.78,7.02-9.47,10.8-14.57c-3.67-3.31-7.3-6.59-11.51-10.38
			c4.81-6.13,9.13-11.63,14.37-18.31c5.63,5.34,11.04,10.1,15.89,15.37c0.98,1.07,0.57,4.44-0.38,6.07
			C177.71,47.61,174.93,50.6,172.24,54.08z"/>
		<path class="st2" d="M-22.84,178.53c3.42-4.28,7.8-9.77,12.82-16.06c6.43,6.02,12.23,11.46,18.62,17.45
			c-5.03,6.34-9.51,11.98-14.41,18.14C-11.58,191.45-16.82,185.43-22.84,178.53z"/>
		<path class="st2" d="M-98.22,16.56C-94.09,11.3-89.85,5.9-85.4,0.24c1.26,0.7,2.35,1.1,3.18,1.81
			c19.28,16.3,18.87,13.49,0.06,33.66c-5.25-5.87-10.47-11.69-15.65-17.55C-98.07,17.86-98.04,17.29-98.22,16.56z"/>
		<path class="st2" d="M243.16,91.8c4.78-5.94,9.17-11.4,13.66-16.99c1.56,1.02,2.61,1.56,3.49,2.3
			c18.75,15.93,18.08,13.58,0.63,31.96c-2.77-2.8-5.51-5.64-8.34-8.39C249.74,97.89,246.79,95.2,243.16,91.8z"/>
		<path class="st2" d="M211.02,167.46c0.01-0.67,0.31-1.53,0-1.99c-7.81-11.87-7.31-17.43,2.97-29.57
			c0.51,8.53,6.38,12.93,12.53,17.04c9.2,6.14,16.61,13.97,18.46,25.03c0.9,5.37-1.1,11.3-2.19,16.89
			c-0.87,4.48-2.32,8.85-3.55,13.25c-2.15,7.7-3.57,15.72-6.67,23.02c-4.94,11.62-12.12,13.46-22.55,6.26
			c-15.51-10.72-21.18-26.55-22.57-44.64c-0.66-8.62,2.83-14.96,9.63-21.69c1.06,24.01,7.63,43.79,31.74,53.78
			c1.59-8.21-1.47-13.31-6.35-17.49c-3.96-3.38-8.37-6.23-12.37-9.56c-11.75-9.76-11.29-21.15,1.13-30.56
			c2.09,13.21,14.46,16.76,22.88,24.02C229.43,180.45,222.89,171.4,211.02,167.46z"/>
		<path class="st2" d="M157.13,170.95c15.64,10.8,22.49,30.56,16.13,46.24c1.57-16.09-3.53-28.24-13.98-38.45
			C157.9,177.4,158.04,174.49,157.13,170.95z"/>
		<path class="st2" d="M61.69,23.39c3.78,2.18,7.22,4.15,11.34,6.53c-3.25,6.14-6.39,12.08-9.92,18.76
			c-7.72-3.97-14.76-7.6-22.75-11.72c3.06-5.88,6.04-11.61,9.19-17.68c-3.05-2-5.95-3.91-9.63-6.33
			c3.26-6.07,6.45-11.99,10.15-18.89c6.52,4.06,12.35,7.48,17.89,11.32c0.92,0.64,1.24,3.42,0.67,4.71
			C66.73,14.39,64.31,18.46,61.69,23.39z"/>
	</g>
</g>
<linearGradient id="SVGID_00000179614693838560325060000008726556481386797753_" gradientUnits="userSpaceOnUse" x1="35.0764" y1="323.846" x2="323.8765" y2="323.846">
	<stop  offset="0.1024" style="stop-color:#395859"/>
	<stop  offset="0.3454" style="stop-color:#4C7E7E"/>
</linearGradient>
<path style="fill:url(#SVGID_00000179614693838560325060000008726556481386797753_);" d="M295.78,609.05
	c15.66-0.99,28.1-11.4,28.1-24.01V159.56c0-12.61-12.44-23.02-28.1-24.01c3.87-12.32,0.93-26.74-7.04-37.46
	c-11.62-15.63-31.4-26-51.43-34.24c-19.54-8.04-40.17-14.69-57.83-25.2c-17.65,10.51-38.28,17.16-57.83,25.2
	c-20.04,8.24-39.81,18.61-51.43,34.24c-7.97,10.72-10.91,25.15-7.04,37.46c-15.66,0.99-28.1,11.4-28.1,24.01v425.47
	c0,12.61,12.44,23.02,28.1,24.01"/>
<g>
	<path class="st4" d="M101.49,579.59c0,0.63,0.04,1.16,0.11,1.57c0.07,0.41,0.24,0.73,0.49,0.97s0.61,0.4,1.06,0.49
		c0.46,0.09,1.07,0.14,1.83,0.14h2.07c1.08,0,1.96-0.09,2.64-0.27c0.68-0.18,1.25-0.48,1.72-0.9s0.88-0.97,1.25-1.67
		c0.36-0.69,0.76-1.54,1.19-2.55l1.09,0.25c-0.15,0.54-0.29,1.12-0.42,1.73c-0.13,0.62-0.25,1.22-0.36,1.82
		c-0.11,0.6-0.21,1.16-0.28,1.68c-0.08,0.52-0.12,0.95-0.14,1.29c-3.71,0-6.72-0.01-9.02-0.03c-2.3-0.02-4.03-0.03-5.16-0.03
		c-0.34,0-0.73,0-1.19,0.01c-0.46,0.01-0.93,0.01-1.41,0.01c-0.49,0-0.96,0-1.41,0.01c-0.46,0.01-0.84,0.01-1.16,0.01l-0.08-0.95
		c0.86-0.06,1.55-0.14,2.07-0.27c0.52-0.12,0.92-0.31,1.2-0.56c0.28-0.25,0.47-0.6,0.56-1.04c0.09-0.44,0.14-1.01,0.14-1.72v-18.83
		c0-0.45-0.04-0.82-0.13-1.12c-0.08-0.3-0.25-0.54-0.5-0.74c-0.25-0.2-0.62-0.34-1.09-0.43c-0.48-0.09-1.12-0.16-1.92-0.2l0.08-1.01
		c0.35,0,0.76,0,1.22,0.01c0.46,0.01,0.92,0.01,1.39,0.01c0.48,0,0.96,0,1.41,0.01c0.46,0.01,0.88,0.01,1.27,0.01
		c0.73,0,2.26-0.01,4.59-0.03c2.33-0.02,5.3-0.03,8.9-0.03c-0.11,0.95-0.2,1.95-0.25,2.99c-0.06,1.04-0.09,2.15-0.11,3.33
		l-1.12,0.03c-0.17-0.97-0.35-1.77-0.56-2.41c-0.21-0.63-0.49-1.14-0.87-1.53c-0.37-0.38-0.86-0.65-1.46-0.81
		c-0.6-0.16-1.37-0.24-2.32-0.24h-4c-0.56,0-0.92,0.06-1.08,0.17c-0.16,0.11-0.24,0.4-0.24,0.87v9.68l9.46-0.28l0.2,0.2l-0.06,2.32
		c-1.7-0.15-3.37-0.25-5.02-0.31c-1.65-0.06-3.18-0.1-4.58-0.14V579.59z"/>
	<path class="st4" d="M118.28,576.34c0.37,0.97,0.77,1.87,1.19,2.69c0.42,0.82,0.92,1.54,1.51,2.14c0.59,0.61,1.27,1.08,2.06,1.43
		c0.78,0.34,1.73,0.52,2.83,0.52c0.73,0,1.4-0.12,2.01-0.36c0.62-0.24,1.16-0.59,1.62-1.04c0.47-0.45,0.83-0.97,1.09-1.58
		c0.26-0.61,0.39-1.27,0.39-2c0-0.91-0.17-1.7-0.5-2.35c-0.34-0.65-0.78-1.22-1.34-1.69s-1.19-0.89-1.9-1.25s-1.44-0.7-2.18-1.04
		c-0.84-0.37-1.68-0.78-2.53-1.23c-0.85-0.45-1.61-0.98-2.28-1.6c-0.67-0.62-1.22-1.32-1.65-2.13c-0.43-0.8-0.64-1.75-0.64-2.85
		c0-1.18,0.24-2.21,0.71-3.12c0.48-0.91,1.12-1.67,1.93-2.28c0.81-0.62,1.75-1.08,2.83-1.4c1.07-0.32,2.21-0.48,3.43-0.48
		c1.18,0,2.26,0.09,3.26,0.27c1,0.18,2.07,0.42,3.2,0.71c-0.06,0.6-0.1,1.15-0.14,1.66c-0.04,0.51-0.06,1.02-0.07,1.51
		c-0.01,0.49-0.02,1-0.03,1.51c-0.01,0.51-0.01,1.07-0.01,1.67l-1.18,0.11c-0.17-1.98-0.77-3.46-1.8-4.44s-2.43-1.47-4.18-1.47
		c-0.67,0-1.29,0.1-1.85,0.31s-1.04,0.5-1.46,0.9c-0.41,0.39-0.73,0.86-0.97,1.4c-0.23,0.54-0.35,1.15-0.35,1.82
		c0,0.9,0.14,1.65,0.43,2.25s0.69,1.13,1.19,1.58c0.5,0.45,1.09,0.83,1.75,1.16s1.36,0.65,2.08,0.96c0.9,0.39,1.79,0.82,2.7,1.29
		c0.9,0.47,1.72,1.02,2.43,1.65c0.72,0.63,1.3,1.37,1.75,2.21c0.45,0.84,0.67,1.83,0.67,2.97c0,1.27-0.26,2.39-0.78,3.37
		s-1.21,1.81-2.07,2.49c-0.86,0.68-1.85,1.2-2.97,1.55c-1.12,0.35-2.27,0.53-3.44,0.53c-1.03,0-2.09-0.1-3.19-0.31
		c-1.1-0.21-2.27-0.49-3.5-0.84c-0.13-1.23-0.29-2.39-0.48-3.47s-0.44-2.24-0.76-3.47L118.28,576.34z"/>
	<path class="st4" d="M147.95,557.34c0.63,0,1.39,0,2.28-0.01s1.83-0.01,2.84-0.01c1.03,0,2.09,0,3.19-0.01
		c1.1-0.01,2.21-0.01,3.33-0.01c-0.06,0.65-0.11,1.25-0.15,1.8c-0.05,0.55-0.08,1.09-0.11,1.62c-0.03,0.53-0.05,1.07-0.06,1.61
		c-0.01,0.54-0.01,1.13-0.01,1.76l-1.06,0.06c-0.17-1.01-0.35-1.86-0.55-2.55c-0.2-0.69-0.48-1.25-0.85-1.69
		c-0.37-0.44-0.88-0.75-1.51-0.94c-0.63-0.19-1.47-0.28-2.52-0.28h-3.19v21.97c0,0.45,0.04,0.82,0.11,1.12
		c0.07,0.3,0.24,0.55,0.5,0.74c0.26,0.2,0.66,0.34,1.19,0.43c0.53,0.09,1.25,0.16,2.17,0.2l-0.06,1.01c-0.39,0-0.84,0-1.33-0.01
		s-1-0.01-1.52-0.01c-0.52,0-1.04,0-1.55-0.01c-0.51-0.01-0.99-0.01-1.44-0.01c-0.37,0-0.78,0-1.22,0.01
		c-0.44,0.01-0.88,0.01-1.33,0.01c-0.45,0-0.9,0-1.34,0.01c-0.45,0.01-0.85,0.01-1.2,0.01l-0.08-0.95c0.86-0.06,1.55-0.14,2.07-0.25
		c0.52-0.11,0.91-0.3,1.18-0.56c0.26-0.26,0.43-0.61,0.52-1.05c0.08-0.44,0.13-1.01,0.13-1.72v-20.93h-3.11
		c-1.04,0-1.89,0.09-2.53,0.28s-1.16,0.5-1.55,0.94c-0.39,0.44-0.69,1-0.89,1.69c-0.21,0.69-0.39,1.54-0.56,2.55l-1.06-0.06v-1.76
		c0-0.84-0.01-1.64-0.04-2.41c-0.03-0.76-0.09-1.64-0.18-2.63c1.12,0,2.22,0,3.3,0.01c1.08,0.01,2.13,0.01,3.13,0.01
		c1.01,0,1.94,0,2.81,0.01C146.53,557.34,147.29,557.34,147.95,557.34z"/>
	<path class="st4" d="M177.58,574.22h-9.32l-2.16,5.51c-0.37,1.06-0.56,1.73-0.56,2.01c0,0.49,0.23,0.82,0.69,1.01
		c0.46,0.19,1.27,0.31,2.45,0.36l-0.08,1.01c-0.69,0-1.46-0.01-2.32-0.03c-0.86-0.02-1.71-0.03-2.55-0.03
		c-0.69,0-1.4,0.01-2.14,0.03c-0.74,0.02-1.45,0.03-2.14,0.03l-0.06-0.95c0.73-0.06,1.32-0.14,1.79-0.27
		c0.47-0.12,0.87-0.34,1.22-0.67c0.35-0.33,0.67-0.77,0.98-1.34c0.31-0.57,0.67-1.33,1.08-2.28l8.03-18.94
		c0.22-0.56,0.42-1.05,0.57-1.47c0.16-0.42,0.33-0.87,0.52-1.36l1.76-0.22c0.21,0.9,0.42,1.72,0.66,2.46s0.45,1.43,0.66,2.04
		l6.3,18.25c0.28,0.82,0.53,1.46,0.76,1.93c0.22,0.47,0.48,0.83,0.78,1.08c0.3,0.25,0.68,0.42,1.13,0.52
		c0.46,0.09,1.05,0.17,1.78,0.22l-0.08,1.01c-0.78,0-1.65-0.01-2.59-0.03c-0.94-0.02-1.89-0.03-2.84-0.03
		c-0.78,0-1.58,0.01-2.38,0.03c-0.8,0.02-1.6,0.03-2.38,0.03l-0.08-0.95c1.04-0.07,1.79-0.2,2.24-0.38
		c0.45-0.18,0.67-0.51,0.67-0.99c0-0.21-0.04-0.44-0.11-0.71c-0.07-0.27-0.17-0.57-0.28-0.91L177.58,574.22z M168.9,572.59h8.14
		l-3.75-11.08L168.9,572.59z"/>
	<path class="st4" d="M202.9,556.73c2.03,0,3.9,0.32,5.61,0.96s3.17,1.56,4.38,2.76c1.21,1.19,2.16,2.63,2.84,4.31
		c0.68,1.68,1.02,3.56,1.02,5.65c0,1.83-0.29,3.53-0.87,5.11c-0.58,1.58-1.38,2.98-2.41,4.2c-1.03,1.22-2.25,2.23-3.67,3.04
		c-1.42,0.8-2.97,1.34-4.65,1.62l-0.06,0.2c1.08,0.43,2.14,0.88,3.19,1.36c1.04,0.48,2.07,0.95,3.08,1.41
		c1.14,0.54,2.17,1,3.11,1.38c0.93,0.38,1.8,0.7,2.6,0.95c0.8,0.25,1.56,0.44,2.27,0.56s1.4,0.18,2.07,0.18
		c0.84,0,1.66-0.11,2.46-0.32c0.8-0.21,1.68-0.51,2.63-0.88l0.5,0.92c-1.73,1.08-3.25,1.89-4.55,2.42c-1.3,0.53-2.53,0.8-3.71,0.8
		c-0.62,0-1.21-0.06-1.79-0.17c-0.58-0.11-1.17-0.29-1.79-0.54c-0.62-0.25-1.27-0.57-1.97-0.97c-0.7-0.39-1.47-0.87-2.31-1.43
		c-1.49-0.99-2.8-1.82-3.92-2.5s-2.12-1.25-2.99-1.69c-0.88-0.45-1.66-0.8-2.34-1.06c-0.68-0.26-1.33-0.46-1.94-0.59
		c-1.57-0.32-3-0.86-4.31-1.62c-1.31-0.76-2.43-1.72-3.37-2.87c-0.94-1.15-1.67-2.47-2.2-3.97c-0.52-1.5-0.78-3.16-0.78-4.97
		c0-2.07,0.34-3.97,1.01-5.71c0.67-1.73,1.61-3.24,2.83-4.5c1.21-1.27,2.67-2.26,4.37-2.97
		C198.95,557.08,200.83,556.73,202.9,556.73z M202.74,558.24c-1.29,0-2.52,0.21-3.71,0.63c-1.19,0.42-2.23,1.09-3.13,2.01
		c-0.91,0.92-1.63,2.13-2.17,3.61c-0.54,1.48-0.81,3.29-0.81,5.42c0,2.5,0.32,4.6,0.95,6.3c0.63,1.7,1.45,3.06,2.43,4.09
		c0.99,1.03,2.1,1.76,3.33,2.2c1.23,0.44,2.44,0.66,3.64,0.66c1.29,0,2.51-0.21,3.68-0.63c1.17-0.42,2.19-1.09,3.06-2.01
		c0.88-0.92,1.58-2.13,2.1-3.61s0.78-3.29,0.78-5.41c0-2.5-0.31-4.6-0.92-6.3c-0.62-1.7-1.41-3.06-2.38-4.08
		c-0.97-1.03-2.06-1.76-3.26-2.2C205.13,558.46,203.93,558.24,202.74,558.24z"/>
	<path class="st4" d="M226.97,579.59c0,0.63,0.04,1.16,0.11,1.57c0.07,0.41,0.24,0.73,0.49,0.97c0.25,0.23,0.61,0.4,1.06,0.49
		c0.46,0.09,1.07,0.14,1.83,0.14h2.07c1.08,0,1.96-0.09,2.64-0.27c0.68-0.18,1.25-0.48,1.72-0.9c0.47-0.42,0.88-0.97,1.25-1.67
		c0.36-0.69,0.76-1.54,1.19-2.55l1.09,0.25c-0.15,0.54-0.29,1.12-0.42,1.73s-0.25,1.22-0.36,1.82c-0.11,0.6-0.21,1.16-0.28,1.68
		s-0.12,0.95-0.14,1.29c-3.71,0-6.72-0.01-9.02-0.03c-2.3-0.02-4.03-0.03-5.16-0.03c-0.34,0-0.73,0-1.19,0.01
		c-0.46,0.01-0.93,0.01-1.41,0.01s-0.96,0-1.41,0.01s-0.84,0.01-1.16,0.01l-0.08-0.95c0.86-0.06,1.55-0.14,2.07-0.27
		c0.52-0.12,0.92-0.31,1.2-0.56c0.28-0.25,0.47-0.6,0.56-1.04c0.09-0.44,0.14-1.01,0.14-1.72v-18.83c0-0.45-0.04-0.82-0.13-1.12
		c-0.08-0.3-0.25-0.54-0.5-0.74s-0.62-0.34-1.09-0.43s-1.12-0.16-1.92-0.2l0.08-1.01c0.35,0,0.76,0,1.22,0.01
		c0.46,0.01,0.92,0.01,1.39,0.01c0.48,0,0.96,0,1.41,0.01s0.88,0.01,1.27,0.01c0.73,0,2.26-0.01,4.59-0.03
		c2.33-0.02,5.3-0.03,8.9-0.03c-0.11,0.95-0.2,1.95-0.25,2.99c-0.06,1.04-0.09,2.15-0.11,3.33l-1.12,0.03
		c-0.17-0.97-0.35-1.77-0.56-2.41c-0.21-0.63-0.49-1.14-0.87-1.53c-0.37-0.38-0.86-0.65-1.46-0.81c-0.6-0.16-1.37-0.24-2.32-0.24h-4
		c-0.56,0-0.92,0.06-1.08,0.17c-0.16,0.11-0.24,0.4-0.24,0.87v9.68l9.46-0.28l0.2,0.2l-0.06,2.32c-1.7-0.15-3.37-0.25-5.02-0.31
		c-1.65-0.06-3.18-0.1-4.58-0.14V579.59z"/>
	<path class="st4" d="M242.33,557.29c0.22,0,0.61,0,1.16,0.01c0.55,0.01,1.16,0.01,1.83,0.01c0.67,0,1.35,0,2.04,0.01
		s1.29,0.01,1.79,0.01c0.34,0.8,0.68,1.59,1.02,2.38c0.34,0.78,0.7,1.58,1.05,2.38l8,17.63l7.75-17.99c0.32-0.73,0.62-1.46,0.92-2.2
		c0.3-0.74,0.6-1.47,0.9-2.2c0.35,0,0.86,0,1.52-0.01s1.34-0.01,2.03-0.01c0.71,0,1.37,0,1.99-0.01c0.62-0.01,1.05-0.01,1.32-0.01
		l0.06,0.95c-0.82,0.06-1.48,0.14-1.97,0.27c-0.49,0.12-0.87,0.31-1.13,0.56c-0.26,0.25-0.43,0.6-0.5,1.05
		c-0.08,0.45-0.1,1.02-0.08,1.71l0.59,18.83c0.02,0.45,0.08,0.82,0.18,1.12c0.1,0.3,0.29,0.55,0.56,0.74
		c0.27,0.2,0.65,0.34,1.15,0.43s1.15,0.16,1.97,0.2l-0.06,1.01c-0.34,0-0.73,0-1.18-0.01c-0.45-0.01-0.92-0.01-1.43-0.01
		c-0.49,0-0.98,0-1.48-0.01c-0.5-0.01-0.98-0.01-1.43-0.01c-0.37,0-0.76,0-1.16,0.01c-0.4,0.01-0.8,0.01-1.19,0.01
		s-0.77,0-1.12,0.01c-0.35,0.01-0.66,0.01-0.92,0.01l-0.08-0.95c0.67-0.06,1.21-0.14,1.61-0.27c0.4-0.12,0.71-0.31,0.92-0.57
		c0.21-0.26,0.35-0.61,0.39-1.05c0.05-0.44,0.06-1,0.04-1.69l-0.59-17.85c-1.64,3.79-3.26,7.54-4.86,11.26s-3.19,7.5-4.77,11.35
		l-1.34,0.17c-0.54-1.32-1.84-4.24-3.89-8.76c-2.05-4.51-3.98-8.77-5.79-12.76l-0.62,16.23c-0.04,0.88-0.02,1.56,0.06,2.06
		c0.07,0.49,0.23,0.87,0.48,1.12c0.24,0.25,0.59,0.42,1.04,0.5c0.45,0.08,1.03,0.15,1.74,0.21l-0.06,1.01
		c-0.6,0-1.24-0.01-1.93-0.03c-0.69-0.02-1.48-0.03-2.38-0.03c-0.71,0-1.45,0.01-2.22,0.03c-0.77,0.02-1.49,0.03-2.14,0.03
		l-0.08-0.95c0.76-0.07,1.39-0.16,1.88-0.27s0.87-0.31,1.15-0.63c0.28-0.32,0.48-0.79,0.59-1.43c0.11-0.63,0.19-1.51,0.22-2.63
		l0.59-14.47c0.02-0.67,0.02-1.25,0-1.72s-0.07-0.89-0.14-1.23c-0.08-0.34-0.18-0.64-0.31-0.88s-0.3-0.47-0.5-0.67
		c-0.36-0.35-0.8-0.6-1.34-0.73c-0.54-0.13-1.17-0.21-1.88-0.25L242.33,557.29z"/>
</g>
<path class="st5" d="M281.55,588.59c13.75-0.92,24.66-10.58,24.66-22.29V171.34c0-11.71-10.91-21.37-24.66-22.29
	c3.4-11.43,0.82-24.82-6.18-34.78c-10.2-14.51-27.56-24.14-45.14-31.78c-17.15-7.46-35.26-13.63-50.75-23.39
	c-15.49,9.76-33.6,15.93-50.75,23.39c-17.59,7.65-34.94,17.27-45.14,31.78c-7,9.95-9.58,23.34-6.18,34.78
	c-13.75,0.92-24.66,10.58-24.66,22.29V566.3c0,11.71,10.91,21.37,24.66,22.29"/>
<g>
	<g>
		<path class="st4" d="M204.78,420.03h2.36c0,5.26-1.86,9.75-5.58,13.48s-8.21,5.58-13.48,5.58h-1.2
			c6.67,7.72,10.05,16.62,10.14,26.69c0.04,3.67-0.43,7.33-1.4,10.97c3.16,3.23,5.73,6.89,7.69,10.96
			c2.5,5.19,3.77,10.51,3.83,15.97c0.04,4.03-0.59,8.05-1.9,12.03c-0.5-0.13-1.26-0.33-2.27-0.61c1.29-4.55,1.37-8.64,0.25-12.27
			c-0.98-3.37-3.01-6.44-6.1-9.19c-3.09-2.75-6.51-4.81-10.27-6.17c-4.69-1.63-10.99-2.57-18.9-2.84
			c-3.85-0.05-7.69-0.17-11.51-0.35c-2.1-0.11-4.21-0.24-6.31-0.38c-6.68-0.59-11.64-1.38-14.88-2.37c-5.15-1.55-9.82-4.19-14-7.9
			s-7.47-8.06-9.86-13.03c-2.5-5.19-3.77-10.51-3.83-15.97c-0.03-3.62,0.48-7.21,1.51-10.78c-2.11-4.73-2.12-8.96-0.04-12.69
			c1.83,1.67,4.02,2.89,6.59,3.68c2.56,0.79,5.06,1.17,7.48,1.14s4.98-0.06,7.66-0.09c6.67-0.2,13.15-0.17,19.44,0.1h49.59
			c1.38,0,2.55-0.49,3.52-1.46s1.46-2.15,1.46-3.52V420.03z M110.91,437.08c-0.41,3.05-0.23,5.85,0.56,8.4
			c0.98,3.37,3.01,6.44,6.1,9.19c3.09,2.75,6.51,4.81,10.27,6.17c4.69,1.63,10.99,2.57,18.9,2.84c3.85,0.05,7.69,0.17,11.51,0.35
			c2.1,0.11,4.2,0.24,6.31,0.38c6.68,0.59,11.64,1.38,14.88,2.37c5.25,1.58,10.03,4.31,14.32,8.18c0.66-3.67,0.58-7.02-0.25-10.04
			c-0.88-3.37-2.71-6.44-5.48-9.19c-2.78-2.75-5.85-4.81-9.22-6.17c-4.48-1.73-11.06-2.7-19.75-2.92c-2.54-0.1-6.44-0.23-11.7-0.4
			c-5.26-0.17-9.26-0.3-11.98-0.42c-7.11-0.16-12.46-0.95-16.05-2.38l-2.22-1.02c-0.7-0.36-1.39-0.78-2.09-1.26
			C113.46,440.13,112.1,438.76,110.91,437.08z"/>
		<path class="st4" d="M94.07,381.16c-0.22,0.12-0.82-0.3-1.8-1.28c-0.85-0.68-1.64-1.34-2.36-1.96c-0.56-0.47-1.12-0.96-1.68-1.44
			c-0.21-0.19-0.66-0.61-1.35-1.27c-0.05-0.04-0.08-0.07-0.12-0.1s-0.06-0.05-0.07-0.06c-0.22-0.22-0.46-0.45-0.72-0.69
			c-1.09-1.03-1.91-1.81-2.46-2.33c-0.06-0.06-0.14-0.14-0.24-0.23s-0.16-0.15-0.19-0.18c-0.03-0.03-0.07-0.06-0.11-0.1l-0.19-0.17
			c0.51-0.29,1.02-0.67,1.52-1.12c0.76-0.68,1.56-1.62,2.39-2.82l0.02-0.04c0.07-0.11,0.12-0.18,0.15-0.23
			c0.23-0.33,0.47-0.69,0.72-1.07c0.06-0.08,0.12-0.17,0.19-0.28c0.12-0.2,0.25-0.38,0.36-0.54c0.04-0.07,0.17-0.25,0.37-0.53
			c0.15-0.21,0.28-0.39,0.38-0.51c0.15-0.22,0.28-0.39,0.38-0.5c0.17-0.21,0.3-0.37,0.39-0.46c0.2-0.23,0.34-0.39,0.43-0.48
			c0.09-0.1,0.24-0.25,0.44-0.45c0.05-0.04,0.13-0.12,0.23-0.21c0.1-0.09,0.18-0.17,0.23-0.21c0.71-0.64,1.47-1.18,2.28-1.64
			c0.23-0.12,0.83,0.31,1.8,1.28c1.17,0.94,2.52,2.07,4.04,3.4c0.23,0.19,1.24,1.14,3.03,2.87c-1.64,1.29-2.9,2.75-3.76,4.37
			c1.34-1.59,2.77-2.88,4.29-3.87c1.23,1.18,1.85,1.77,1.88,1.77c-2.01,1.12-3.92,3.07-5.73,5.87
			C97.14,378.56,95.55,380.3,94.07,381.16z M94.07,404.84c-0.22,0.12-0.82-0.3-1.8-1.28c-0.85-0.68-1.64-1.34-2.36-1.96
			c-0.56-0.47-1.12-0.95-1.68-1.44c-0.21-0.19-0.66-0.61-1.35-1.27c-0.05-0.04-0.08-0.07-0.12-0.1c-0.27-0.26-0.53-0.52-0.79-0.75
			c-1.09-1.03-1.91-1.81-2.46-2.33c-0.06-0.06-0.14-0.14-0.24-0.23s-0.16-0.15-0.19-0.19c-0.03-0.03-0.07-0.06-0.11-0.1l-0.19-0.17
			c0.51-0.3,1.02-0.67,1.52-1.12c0.76-0.68,1.56-1.62,2.39-2.82c0.08-0.13,0.14-0.22,0.17-0.26c0.23-0.33,0.47-0.69,0.72-1.07
			c0.06-0.08,0.12-0.17,0.19-0.27c0.12-0.2,0.25-0.38,0.36-0.54c0.04-0.07,0.17-0.25,0.37-0.53c0.15-0.21,0.28-0.38,0.38-0.51
			c0.15-0.22,0.28-0.39,0.38-0.5c0.17-0.21,0.3-0.37,0.39-0.46c0.2-0.23,0.34-0.39,0.43-0.48c0.09-0.1,0.24-0.25,0.44-0.45
			c0.05-0.05,0.13-0.12,0.23-0.21s0.18-0.17,0.23-0.21c0.71-0.64,1.47-1.18,2.28-1.64c0.23-0.12,0.83,0.31,1.8,1.28
			c1.17,0.94,2.52,2.07,4.04,3.4c0.23,0.19,1.24,1.14,3.03,2.87c-1.64,1.3-2.9,2.75-3.76,4.37c1.34-1.59,2.77-2.88,4.29-3.87
			c1.23,1.18,1.85,1.77,1.88,1.77c-2.01,1.12-3.92,3.07-5.73,5.87C97.14,402.24,95.55,403.98,94.07,404.84z M204.78,356.95h2.36
			c0,4.09-1.18,7.78-3.53,11.06c-2.36,3.28-5.41,5.58-9.15,6.91c3.93,3.72,7.02,8.07,9.28,13.05s3.39,10.1,3.41,15.37v16.8h-2.36
			v-14.31v-0.91c-0.03-1.16-0.12-1.98-0.26-2.46c-0.92-3.3-3.09-6.34-6.5-9.12c-3.41-2.78-7.09-4.91-11.03-6.38
			c-2.29-0.81-4.76-1.45-7.43-1.91c2.8,5.46,4.23,11.1,4.28,16.91c0.05,4.92-0.72,9.81-2.31,14.67c-0.21,0.7-0.51,1.35-0.89,1.96
			c-1.5-1.25-3.31-2.18-5.43-2.78c-2.12-0.6-4.18-0.9-6.19-0.9c-2.01,0-4.13,0.01-6.36,0.02c-7.91,0.18-15.64-0.03-23.19-0.64
			c-4.89-0.45-8.58-1.07-11.06-1.85c-5.85-1.81-10.7-5.34-14.57-10.59c-3.86-5.25-5.8-10.93-5.82-17.05c0-1.75,0.17-3.51,0.51-5.28
			c0.39-2.43,1.04-4.81,1.95-7.15c-3.35-5.31-3.65-10.12-0.91-14.44c2.02,1.69,4.45,2.93,7.3,3.74s5.62,1.21,8.32,1.21
			c2.7,0,5.55-0.01,8.54-0.03l16.47,0.06h49.59c1.38,0,2.55-0.49,3.52-1.46s1.46-2.15,1.46-3.52V356.95z M111.91,374.35
			c-0.55,1.6-0.98,3.25-1.3,4.95c-0.24,1.29-0.29,2.54-0.17,3.75c0.09,0.86,0.25,1.65,0.47,2.39c0.7,2.52,2.2,4.81,4.48,6.88
			c2.28,2.07,4.82,3.62,7.6,4.66c3.69,1.3,9.13,2.07,16.34,2.3c2.19,0.1,5.46,0.23,9.8,0.38s7.62,0.29,9.8,0.38
			c7.73,0.21,13.35,1.41,16.85,3.61c2.03,1.27,3.62,3.02,4.76,5.27c0.32-2.81,0.11-5.41-0.63-7.8c-0.97-3.38-3-6.44-6.08-9.19
			c-3.09-2.75-6.5-4.81-10.25-6.16c-3.32-1.16-7.23-1.96-11.73-2.41c-6.86-0.26-11.25-0.43-13.19-0.52
			c-10.41-0.29-17.95-1.9-22.64-4.84C114.5,377.01,113.12,375.8,111.91,374.35z"/>
		<path class="st4" d="M85.98,325.31c-1.14-1.07-1.96-1.85-2.46-2.33c-0.06-0.06-0.14-0.14-0.24-0.23c-0.1-0.09-0.16-0.15-0.19-0.18
			c-0.03-0.03-0.07-0.06-0.11-0.1l-0.19-0.17c0.51-0.29,1.02-0.67,1.52-1.12c0.76-0.68,1.56-1.62,2.39-2.82
			c0.08-0.13,0.14-0.22,0.17-0.27c0.23-0.32,0.46-0.68,0.72-1.07c0.06-0.08,0.12-0.17,0.19-0.28c0.12-0.2,0.25-0.38,0.36-0.54
			c0.05-0.07,0.17-0.25,0.37-0.53c0.15-0.21,0.28-0.38,0.38-0.51c0.15-0.22,0.28-0.38,0.38-0.5c0.17-0.21,0.3-0.36,0.39-0.46
			c0.2-0.23,0.34-0.39,0.43-0.48c0.09-0.1,0.24-0.25,0.44-0.45c0.05-0.05,0.13-0.12,0.23-0.21c0.1-0.1,0.18-0.17,0.23-0.21
			c0.71-0.64,1.47-1.19,2.28-1.64c0.23-0.12,0.83,0.31,1.8,1.28c1.17,0.94,2.52,2.07,4.04,3.4c0.23,0.19,1.24,1.15,3.03,2.87
			c-1.64,1.29-2.9,2.75-3.76,4.37c1.34-1.59,2.77-2.88,4.29-3.87c1.23,1.18,1.85,1.77,1.88,1.77c-2.01,1.12-3.92,3.07-5.73,5.87
			c-1.7,2.61-3.29,4.35-4.77,5.22c-0.22,0.12-0.82-0.3-1.8-1.28c-0.85-0.68-1.64-1.34-2.36-1.96c-0.56-0.47-1.12-0.95-1.68-1.44
			c-0.21-0.19-0.66-0.61-1.35-1.27c-0.05-0.04-0.11-0.1-0.19-0.17C86.48,325.77,86.24,325.54,85.98,325.31z M94.07,356.23
			c-0.22,0.12-0.82-0.3-1.8-1.28c-0.85-0.68-1.64-1.34-2.36-1.96c-0.56-0.47-1.12-0.95-1.68-1.44c-0.21-0.19-0.66-0.61-1.35-1.27
			l-0.05-0.04c-0.01-0.01-0.04-0.03-0.07-0.06c-0.27-0.27-0.53-0.52-0.79-0.75c-1.14-1.07-1.96-1.85-2.46-2.33
			c-0.06-0.06-0.14-0.14-0.24-0.23c-0.1-0.09-0.16-0.15-0.19-0.18c-0.03-0.03-0.07-0.06-0.11-0.1l-0.19-0.17
			c0.51-0.29,1.02-0.67,1.52-1.12c0.76-0.68,1.56-1.62,2.39-2.82c0.08-0.13,0.14-0.22,0.17-0.27c0.23-0.32,0.46-0.68,0.72-1.07
			c0.06-0.08,0.12-0.17,0.19-0.27c0.12-0.2,0.25-0.38,0.36-0.54c0.05-0.07,0.17-0.25,0.37-0.53c0.15-0.21,0.28-0.38,0.38-0.51
			c0.15-0.22,0.28-0.38,0.38-0.5c0.17-0.21,0.3-0.36,0.39-0.46l0.04-0.05c0.17-0.2,0.3-0.34,0.39-0.43c0.09-0.1,0.24-0.25,0.44-0.45
			c0.05-0.05,0.13-0.12,0.23-0.21c0.1-0.1,0.18-0.17,0.23-0.21c0.71-0.64,1.47-1.19,2.28-1.64c0.23-0.12,0.83,0.31,1.8,1.28
			c1.17,0.94,2.52,2.07,4.04,3.4c0.23,0.19,1.24,1.15,3.03,2.87c-1.64,1.29-2.9,2.75-3.76,4.37c1.34-1.59,2.77-2.88,4.29-3.87
			c1.23,1.18,1.85,1.77,1.88,1.77c-2.01,1.12-3.92,3.07-5.73,5.87C97.13,353.63,95.55,355.37,94.07,356.23z M204.78,310.34h2.36
			c0,4.07-1.16,7.73-3.49,11c-2.33,3.26-5.34,5.57-9.06,6.92c8.15,7.78,12.32,17,12.54,27.66l0.01,1.04h-2.36v-0.94v-0.11v-0.51
			c0-3.29-1.82-6.25-5.47-8.88c-3.64-2.64-7.78-4.8-12.4-6.48c-4.97-1.73-12.28-2.7-21.92-2.92c-2.82-0.1-7.14-0.23-12.98-0.4
			c-5.84-0.17-10.27-0.3-13.3-0.42c-7.89-0.16-13.83-0.95-17.82-2.38l-2.47-1.02c-0.78-0.37-1.55-0.79-2.32-1.26
			c-3.47-2.14-5.92-5.17-7.35-9.08c-1.42-3.91-1.18-7.56,0.71-10.93c2.03,1.67,4.47,2.89,7.31,3.68c2.85,0.79,5.61,1.17,8.31,1.14
			c2.69-0.03,5.53-0.06,8.51-0.09c5.73-0.16,11.26-0.18,16.6-0.06h49.59c1.38,0,2.55-0.49,3.52-1.46s1.46-2.15,1.46-3.52V310.34z"/>
		<path class="st4" d="M116.87,202.51c2.85,0.81,5.62,1.21,8.31,1.21s5.54-0.02,8.54-0.03c10.74-0.23,21.13,0.06,31.15,0.86
			c6.62,0.63,11.58,1.46,14.86,2.49c7.86,2.43,14.38,7.18,19.57,14.23c5.19,7.05,7.8,14.69,7.82,22.91c0,2.37-0.23,4.73-0.69,7.08
			c-0.58,3.56-1.56,7.02-2.93,10.38c2.41,5.18,3.62,10.47,3.62,15.86c0,2.37-0.23,4.73-0.69,7.08l0.01,0.01
			c-0.58,3.44-1.52,6.78-2.8,10.01c1.88,4.14,3,8.37,3.36,12.71c0.06,0.72,0.1,1.4,0.11,2.03l0.01,1.04h-2.36v-1.56
			c0-3.29-1.82-6.25-5.47-8.88c-3.64-2.64-7.78-4.8-12.4-6.48c-4.97-1.73-12.28-2.7-21.92-2.92c-2.47-0.09-7.31-0.24-14.54-0.44
			c-0.03,0-0.07,0-0.12-0.01c-0.05,0-0.09,0-0.12,0h-0.13c-4.18-0.15-7.98-0.3-11.4-0.45c-10.41-0.29-17.95-1.9-22.64-4.84
			c-3.47-2.17-5.9-5.22-7.29-9.14c-1.4-3.92-1.13-7.56,0.81-10.92c2.02,1.69,4.45,2.93,7.3,3.74c2.84,0.81,5.62,1.21,8.32,1.21
			c2.7,0,5.55-0.01,8.54-0.02c10.74-0.23,21.13,0.06,31.15,0.86c6.62,0.63,11.58,1.46,14.86,2.49c9.54,2.96,16.95,9.06,22.21,18.28
			c0.73-2.17,1.28-4.31,1.67-6.43c0.31-1.71,0.39-3.39,0.23-5.04c-0.11-1.11-0.32-2.18-0.63-3.21c-0.95-3.38-2.96-6.46-6.02-9.23
			c-3.07-2.78-6.47-4.86-10.21-6.26c-4.96-1.76-12.27-2.79-21.95-3.09c-2.94-0.13-7.33-0.3-13.17-0.52
			c-5.84-0.21-10.24-0.38-13.17-0.52c-10.41-0.29-17.95-1.9-22.64-4.84c-3.47-2.17-5.9-5.22-7.29-9.14
			c-1.4-3.92-1.13-7.56,0.81-10.92c2.02,1.69,4.45,2.93,7.3,3.74c2.84,0.81,5.62,1.21,8.32,1.21s5.55-0.01,8.54-0.03
			c10.74-0.23,21.13,0.06,31.15,0.86c6.62,0.63,11.58,1.46,14.86,2.49c9.44,2.93,16.79,8.94,22.06,18.03
			c0.78-2.22,1.39-4.51,1.82-6.85c0.31-1.71,0.39-3.39,0.23-5.04c-0.11-1.11-0.32-2.18-0.63-3.21c-0.95-3.38-2.96-6.46-6.02-9.23
			c-3.07-2.78-6.47-4.86-10.21-6.26c-4.96-1.76-12.27-2.79-21.95-3.09c-2.94-0.13-7.33-0.3-13.17-0.52
			c-5.84-0.21-10.24-0.38-13.17-0.52c-10.41-0.29-17.95-1.9-22.64-4.84c-3.47-2.17-5.9-5.22-7.29-9.14
			c-1.4-3.92-1.13-7.56,0.81-10.92C111.59,200.45,114.03,201.7,116.87,202.51z"/>
	</g>
	<g>
		<path class="st4" d="M252.39,193.95c-0.5,4.3-0.48,8.18,0.07,11.64c0.27,4.75,0.41,36.87,0.43,52.91
			c0.02,16.04-0.1,190.75-0.36,195.49c-0.43,6.05-1.11,10.58-2.03,13.58c-2.16,7.08-6.6,13.07-13.31,17.95
			c-6.71,4.88-14.11,7.53-22.19,7.94v-3.56c3.34-0.96,6.35-2.88,9.03-5.74c2.68-2.86,4.65-6.01,5.93-9.45
			c1.6-4.54,2.41-11.22,2.43-20.04c0.04-2.68,0.07-176.66,0.11-193.32c0.04-16.66,0.07-48.05,0.11-50.72
			c-0.02-9.47,1.36-16.38,4.15-20.71c2.07-3.21,5.04-5.5,8.92-6.88c3.88-1.38,7.52-1.23,10.94,0.43
			C254.3,186.16,252.89,189.65,252.39,193.95z"/>
	</g>
	<path class="st4" d="M174.47,153.66"/>
</g>
</svg>
